# Made in Blockbench 4.11.1
mtllib basicLamp.mtl

o Basic Lamp
v 0.04571980696905144 0.4881480035599667 -2.9738116731030977e-18
v 0.08027067578063096 0.41187454318368427 0.18749999999999994
v 0.07656625731394481 0.2252396315783961 0.32475952641916445
v 0.16522702961005 0.393040172982097 0.13725952641916445
v 0.22371497857229738 0.19261754546068563 0.23774047358083544
v 0.21427660336283427 0.3821661442761935 0.05024047358083548
v 0.30867133240171646 0.1737831752590983 0.08701905283832896
v 0.21427660336283427 0.3821661442761935 -0.050240473580835505
v 0.30867133240171646 0.1737831752590983 -0.08701905283832902
v 0.16522702961005004 0.393040172982097 -0.13725952641916442
v 0.22371497857229738 0.19261754546068563 -0.23774047358083544
v 0.08027067578063102 0.41187454318368427 -0.18749999999999992
v 0.0765662573139449 0.22523963157839608 -0.32475952641916445
v -0.01782847172493733 0.43362260059549124 -0.18749999999999997
v -0.09334645034489322 0.2629083719815707 -0.3247595264191645
v -0.10278482555435645 0.45245697079707853 -0.13725952641916447
v -0.2404951716032459 0.29553045809928113 -0.23774047358083555
v -0.15183439930714068 0.463330999502982 -0.050240473580835464
v -0.3254515254326651 0.3143648283008685 -0.08701905283832893
v -0.1518343993071407 0.46333099950298207 0.050240473580835394
v -0.3254515254326651 0.3143648283008685 0.08701905283832881
v -0.1027848255543565 0.45245697079707853 0.13725952641916442
v -0.24049517160324602 0.2955304580992812 0.23774047358083544
v -0.017828471724937393 0.43362260059549124 0.18749999999999994
v -0.09334645034489333 0.2629083719815707 0.32475952641916445
v 0.5624999999999999 0.4419872981077808 0.06690952255126036
v 0.6066941738241591 0.4538290912941249 0.04731217712195041
v 0.6249999999999999 0.4587341226347259 -1.4495683547927895e-17
v 0.6066941738241592 0.4538290912941248 -0.04731217712195045
v 0.5624999999999999 0.4419872981077808 -0.06690952255126038
v 0.5183058261758409 0.43014550492143666 -0.047312177121950454
v 0.5 0.4252404735808356 -2.3446706001234894e-17
v 0.5183058261758409 0.43014550492143666 0.047312177121950405
v 0.4955127018922193 0.5580127018922194 0.06690952255126033
v 0.5278650825300344 0.5903650825300344 0.047312177121950384
v 0.5412658773652741 0.6037658773652742 -4.669920222865652e-17
v 0.5278650825300344 0.5903650825300344 -0.047312177121950474
v 0.4955127018922193 0.5580127018922194 -0.06690952255126041
v 0.4631603212544042 0.5256603212544042 -0.047312177121950474
v 0.4497595264191645 0.5122595264191645 -4.276881720967207e-17
v 0.4631603212544042 0.5256603212544042 0.047312177121950384
v 0.3794872981077807 0.625 0.06690952255126031
v 0.3913290912941248 0.6691941738241591 0.04731217712195037
v 0.3962341226347259 0.6875 -6.529191240782834e-17
v 0.3913290912941248 0.6691941738241591 -0.04731217712195049
v 0.3794872981077807 0.6249999999999999 -0.06690952255126043
v 0.3676455049214366 0.5808058261758408 -0.04731217712195049
v 0.36274047358083555 0.5625 -5.392444331717516e-17
v 0.3676455049214366 0.5808058261758408 0.04731217712195037
v 0.2455127018922194 0.625 0.06690952255126031
v 0.2336709087058753 0.6691941738241591 0.04731217712195037
v 0.22876587736527432 0.6875 -6.529191240782836e-17
v 0.23367090870587537 0.6691941738241592 -0.04731217712195049
v 0.2455127018922194 0.625 -0.06690952255126043
v 0.25735449507856356 0.5808058261758408 -0.04731217712195049
v 0.26225952641916456 0.5625 -5.392444331717517e-17
v 0.25735449507856356 0.5808058261758408 0.04731217712195037
v 0.1294872981077807 0.5580127018922195 0.06690952255126033
v 0.09713491746996569 0.5903650825300345 0.047312177121950384
v 0.08373412263472588 0.6037658773652743 -4.669920222865653e-17
v 0.09713491746996564 0.5903650825300346 -0.047312177121950474
v 0.1294872981077807 0.5580127018922194 -0.06690952255126041
v 0.1618396787455958 0.5256603212544042 -0.047312177121950474
v 0.17524047358083555 0.5122595264191646 -4.2768817209672076e-17
v 0.1618396787455958 0.5256603212544042 0.047312177121950384
v 0.06250000000000006 0.4419872981077807 0.06690952255126036
v 0.01830582617584084 0.45382909129412474 0.04731217712195041
v 0 0.45873412263472585 -1.4495683547927876e-17
v 0.018305826175840784 0.4538290912941248 -0.04731217712195045
v 0.06250000000000006 0.44198729810778065 -0.06690952255126038
v 0.10669417382415924 0.43014550492143655 -0.047312177121950454
v 0.125 0.42524047358083555 -2.3446706001234882e-17
v 0.10669417382415924 0.4301455049214366 0.047312177121950405
vt 0 0.7411749999999999
vt 0.133975 0.7411749999999999
vt 0.0669875 1
vt 0.0490375 1
vt 0 0.7411749999999999
vt 0.23205 0.7411749999999999
vt 0.18301250000000002 1
vt 0 0.7411749999999999
vt 0.133975 0.7411749999999999
vt 0.0669875 1
vt 0.0490375 1
vt 0 0.7411749999999999
vt 0.23205 0.7411749999999999
vt 0.18301250000000002 1
vt 0 0.7411749999999999
vt 0.133975 0.7411749999999999
vt 0.0669875 1
vt 0.0490375 1
vt 0 0.7411749999999999
vt 0.23205 0.7411749999999999
vt 0.18301250000000002 1
vt 0 0.7411749999999999
vt 0.133975 0.7411749999999999
vt 0.0669875 1
vt 0.0490375 1
vt 0 0.7411749999999999
vt 0.23205 0.7411749999999999
vt 0.18301250000000002 1
vt 0 0.7411749999999999
vt 0.133975 0.7411749999999999
vt 0.0669875 1
vt 0.0490375 1
vt 0 0.7411749999999999
vt 0.23205 0.7411749999999999
vt 0.18301250000000002 1
vt 0 0.7411749999999999
vt 0.133975 0.7411749999999999
vt 0.0669875 1
vt 0.0490375 1
vt 0 0.7411749999999999
vt 0.23205 0.7411749999999999
vt 0.18301250000000002 1
vt 0 0.7411749999999999
vt 0.133975 0.7411749999999999
vt 0.0669875 1
vt 0.0490375 1
vt 0 0.7411749999999999
vt 0.23205 0.7411749999999999
vt 0.18301250000000002 1
vt 0 0.7411749999999999
vt 0.133975 0.7411749999999999
vt 0.0669875 1
vt 0.0490375 1
vt 0 0.7411749999999999
vt 0.23205 0.7411749999999999
vt 0.18301250000000002 1
vt 0 0.7411749999999999
vt 0.133975 0.7411749999999999
vt 0.0669875 1
vt 0.0490375 1
vt 0 0.7411749999999999
vt 0.23205 0.7411749999999999
vt 0.18301250000000002 1
vt 0 0.7411749999999999
vt 0.133975 0.7411749999999999
vt 0.0669875 1
vt 0.0490375 1
vt 0 0.7411749999999999
vt 0.23205 0.7411749999999999
vt 0.18301250000000002 1
vt 0 0.7411749999999999
vt 0.133975 0.7411749999999999
vt 0.0669875 1
vt 0.0490375 1
vt 0 0.7411749999999999
vt 0.23205 0.7411749999999999
vt 0.18301250000000002 1
vt 0 0.7411749999999999
vt 0.133975 0.7411749999999999
vt 0.0669875 1
vt 0.0490375 1
vt 0 0.7411749999999999
vt 0.23205 0.7411749999999999
vt 0.18301250000000002 1
vt 0.023681249999999987 0.9999999999999973
vt 0 0.9038249999999973
vt 0.3153125 0.9038249999999973
vt 0.29163125 0.9999999999999973
vt 0.009812500000000002 1
vt 0 0.90144375
vt 0.3349375 0.90144375
vt 0.325125 1
vt 0 1
vt 0.009812500000000002 0.90144375
vt 0.325125 0.90144375
vt 0.3349375 1
vt 0 1
vt 0.023681249999999987 0.903825
vt 0.29163125 0.903825
vt 0.3153125 1
vt 0.26795 0.9038312500000001
vt 0.24426875 1
vt 0.023681250000000015 1
vt 0 0.9038312500000001
vt 0.2205875 0.9014375
vt 0.210775 1
vt 0.009812500000000002 1
vt 0 0.9014375
vt 0.210775 0.9014375
vt 0.2205875 1
vt 0 1
vt 0.009812500000000002 0.9014375
vt 0.24426875 0.9038312500000001
vt 0.26795 1
vt 0 1
vt 0.023681250000000015 0.9038312500000001
vt 0.023681249999999987 0.9999999999999973
vt 0 0.9038249999999973
vt 0.3153125 0.9038249999999973
vt 0.29163125 0.9999999999999973
vt 0.009812500000000002 1
vt 0 0.90144375
vt 0.3349375 0.90144375
vt 0.325125 1
vt 0 1
vt 0.009812500000000002 0.90144375
vt 0.325125 0.90144375
vt 0.3349375 1
vt 0 1
vt 0.023681249999999987 0.903825
vt 0.29163125 0.903825
vt 0.3153125 1
vt 0.26795 0.9038312500000001
vt 0.24426875 1
vt 0.023681250000000015 1
vt 0 0.9038312500000001
vt 0.2205875 0.9014375
vt 0.210775 1
vt 0.009812500000000002 1
vt 0 0.9014375
vt 0.210775 0.9014375
vt 0.2205875 1
vt 0 1
vt 0.009812500000000002 0.9014375
vt 0.24426875 0.9038312500000001
vt 0.26795 1
vt 0 1
vt 0.023681250000000015 0.9038312500000001
vt 0.023681249999999987 0.9999999999999973
vt 0 0.9038249999999973
vt 0.3153125 0.9038249999999973
vt 0.29163125 0.9999999999999973
vt 0.009812500000000002 1
vt 0 0.90144375
vt 0.3349375 0.90144375
vt 0.325125 1
vt 0 1
vt 0.009812500000000002 0.90144375
vt 0.325125 0.90144375
vt 0.3349375 1
vt 0 1
vt 0.023681249999999987 0.903825
vt 0.29163125 0.903825
vt 0.3153125 1
vt 0.26795 0.9038312500000001
vt 0.24426875 1
vt 0.023681250000000015 1
vt 0 0.9038312500000001
vt 0.2205875 0.9014375
vt 0.210775 1
vt 0.009812500000000002 1
vt 0 0.9014375
vt 0.210775 0.9014375
vt 0.2205875 1
vt 0 1
vt 0.009812500000000002 0.9014375
vt 0.24426875 0.9038312500000001
vt 0.26795 1
vt 0 1
vt 0.023681250000000015 0.9038312500000001
vt 0.023681249999999987 0.9999999999999973
vt 0 0.9038249999999973
vt 0.3153125 0.9038249999999973
vt 0.29163125 0.9999999999999973
vt 0.009812500000000002 1
vt 0 0.90144375
vt 0.3349375 0.90144375
vt 0.325125 1
vt 0 1
vt 0.009812500000000002 0.90144375
vt 0.325125 0.90144375
vt 0.3349375 1
vt 0 1
vt 0.023681249999999987 0.903825
vt 0.29163125 0.903825
vt 0.3153125 1
vt 0.26795 0.9038312500000001
vt 0.24426875 1
vt 0.023681250000000015 1
vt 0 0.9038312500000001
vt 0.2205875 0.9014375
vt 0.210775 1
vt 0.009812500000000002 1
vt 0 0.9014375
vt 0.210775 0.9014375
vt 0.2205875 1
vt 0 1
vt 0.009812500000000002 0.9014375
vt 0.24426875 0.9038312500000001
vt 0.26795 1
vt 0 1
vt 0.023681250000000015 0.9038312500000001
vt 0.023681249999999987 0.9999999999999973
vt 0 0.9038249999999973
vt 0.3153125 0.9038249999999973
vt 0.29163125 0.9999999999999973
vt 0.009812500000000002 1
vt 0 0.90144375
vt 0.3349375 0.90144375
vt 0.325125 1
vt 0 1
vt 0.009812500000000002 0.90144375
vt 0.325125 0.90144375
vt 0.3349375 1
vt 0 1
vt 0.023681249999999987 0.903825
vt 0.29163125 0.903825
vt 0.3153125 1
vt 0.26795 0.9038312500000001
vt 0.24426875 1
vt 0.023681250000000015 1
vt 0 0.9038312500000001
vt 0.2205875 0.9014375
vt 0.210775 1
vt 0.009812500000000002 1
vt 0 0.9014375
vt 0.210775 0.9014375
vt 0.2205875 1
vt 0 1
vt 0.009812500000000002 0.9014375
vt 0.24426875 0.9038312500000001
vt 0.26795 1
vt 0 1
vt 0.023681250000000015 0.9038312500000001
vt 0 1
vt 0 1
vt 0 1
vt 0 1
vt 0 1
vt 0 1
vt 0 1
vt 0 1
vt 0 1
vt 0 1
vt 0 1
vt 0 1
vn 0.3680543077483047 0.8829737692317349 0.29136463305730703
vn 0.5203821712108352 0.49920175869671896 0.6928203230275508
vn 0.4882804589193044 0.856320273207021 0.16821944932797286
vn 0.8062614833862021 0.43582384102740546 0.40000000000000024
vn 0.5322862844471185 0.8465644165623082 0
vn 0.9109005740588083 0.41262591312147784 0
vn 0.48828045891930427 0.8563202732070211 -0.16821944932797286
vn 0.8062614833862021 0.43582384102740546 -0.4000000000000003
vn 0.3680543077483048 0.882973769231735 -0.29136463305730703
vn 0.5203821712108354 0.499201758696719 -0.6928203230275507
vn 0.2038223310494911 0.9193831219011617 -0.3364388986559455
vn 0.12986376836286198 0.58577760427196 -0.7999999999999999
vn 0.039590354350677155 0.9557924745705885 -0.29136463305730714
vn -0.2606546344851113 0.6723534498472014 -0.692820323027551
vn -0.08063579682032249 0.9824459705953021 -0.1682194493279728
vn -0.5465339466604785 0.735731367516515 -0.39999999999999997
vn -0.12464162234813661 0.992201827240015 -9.293359144653917e-17
vn -0.6511730373330848 0.7589292954224425 0
vn -0.08063579682032254 0.9824459705953021 0.16821944932797267
vn -0.5465339466604787 0.7357313675165151 0.3999999999999996
vn 0.0395903543506771 0.9557924745705885 0.2913646330573071
vn -0.26065463448511145 0.6723534498472012 0.6928203230275509
vn 0.2038223310494909 0.9193831219011617 0.33643889865594556
vn 0.12986376836286173 0.5857776042719601 0.7999999999999999
vn 0.3510602927954793 0.2026847545472591 0.9141529199737152
vn 0.8076768771994859 0.46631246246935987 0.3608472660046746
vn 0.8076768771994859 0.46631246246936 -0.3608472660046745
vn 0.3510602927954793 0.20268475454725832 -0.9141529199737154
vn -0.35106029279547996 -0.20268475454725976 -0.9141529199737148
vn -0.8076768771994859 -0.4663124624693601 -0.3608472660046745
vn -0.8076768771994859 -0.4663124624693602 0.3608472660046745
vn -0.3510602927954805 -0.20268475454725904 0.9141529199737147
vn 0.20268475454725893 0.3510602927954801 0.9141529199737148
vn 0.4663124624693601 0.8076768771994862 0.36084726600467426
vn 0.4663124624693592 0.8076768771994866 -0.36084726600467415
vn 0.20268475454725904 0.3510602927954799 -0.9141529199737151
vn -0.20268475454725882 -0.35106029279547885 -0.9141529199737155
vn -0.46631246246935976 -0.8076768771994866 -0.360847266004674
vn -0.4663124624693604 -0.807676877199486 0.360847266004674
vn -0.2026847545472589 -0.35106029279547907 0.9141529199737155
vn 2.0816681711721685e-16 0.4053695090945194 0.9141529199737145
vn 1.3877787807814457e-16 0.9326249249387183 0.3608472660046772
vn 1.0824674490095278e-15 0.9326249249387183 -0.3608472660046773
vn 3.885780586188048e-16 0.4053695090945183 -0.914152919973715
vn 1.5265566588595902e-16 -0.4053695090945186 -0.9141529199737148
vn -2.2204460492503136e-16 -0.9326249249387191 -0.3608472660046753
vn 3.608224830031759e-16 -0.932624924938719 0.36084726600467526
vn -2.775557561562892e-17 -0.40536950909451774 0.9141529199737153
vn -0.20268475454725907 0.3510602927954804 0.9141529199737148
vn -0.46631246246935887 0.8076768771994859 0.360847266004676
vn -0.46631246246935887 0.8076768771994864 -0.36084726600467465
vn -0.20268475454725915 0.3510602927954797 -0.9141529199737151
vn 0.20268475454725846 -0.35106029279547923 -0.9141529199737154
vn 0.4663124624693595 -0.8076768771994864 -0.3608472660046738
vn 0.46631246246935976 -0.8076768771994864 0.36084726600467393
vn 0.2026847545472586 -0.35106029279547935 0.9141529199737153
vn -0.3510602927954802 0.2026847545472595 0.9141529199737147
vn -0.8076768771994857 0.4663124624693593 0.36084726600467604
vn -0.8076768771994866 0.4663124624693594 -0.3608472660046741
vn -0.3510602927954794 0.20268475454725843 -0.9141529199737153
vn 0.35106029279547946 -0.2026847545472591 -0.9141529199737152
vn 0.807676877199486 -0.46631246246935987 -0.36084726600467487
vn 0.8076768771994859 -0.4663124624693599 0.3608472660046744
vn 0.3510602927954794 -0.20268475454725837 0.9141529199737153
vn 0.25881904510252157 -0.9659258262890681 0
vn 0.2588190451025205 -0.9659258262890685 -2.660201076518868e-15
vn 0.2588190451025244 -0.9659258262890673 4.353056307030871e-15
usemtl none
f 2/1/1 4/2/1 1/3/1
f 2/4/2 3/5/2 5/6/2 4/7/2
f 4/8/3 6/9/3 1/10/3
f 4/11/4 5/12/4 7/13/4 6/14/4
f 6/15/5 8/16/5 1/17/5
f 6/18/6 7/19/6 9/20/6 8/21/6
f 8/22/7 10/23/7 1/24/7
f 8/25/8 9/26/8 11/27/8 10/28/8
f 10/29/9 12/30/9 1/31/9
f 10/32/10 11/33/10 13/34/10 12/35/10
f 12/36/11 14/37/11 1/38/11
f 12/39/12 13/40/12 15/41/12 14/42/12
f 14/43/13 16/44/13 1/45/13
f 14/46/14 15/47/14 17/48/14 16/49/14
f 16/50/15 18/51/15 1/52/15
f 16/53/16 17/54/16 19/55/16 18/56/16
f 18/57/17 20/58/17 1/59/17
f 18/60/18 19/61/18 21/62/18 20/63/18
f 20/64/19 22/65/19 1/66/19
f 20/67/20 21/68/20 23/69/20 22/70/20
f 22/71/21 24/72/21 1/73/21
f 22/74/22 23/75/22 25/76/22 24/77/22
f 24/78/23 2/79/23 1/80/23
f 24/81/24 25/82/24 3/83/24 2/84/24
f 26/85/25 27/86/25 35/87/25 34/88/25
f 27/89/26 28/90/26 36/91/26 35/92/26
f 28/93/27 29/94/27 37/95/27 36/96/27
f 29/97/28 30/98/28 38/99/28 37/100/28
f 30/101/29 31/102/29 39/103/29 38/104/29
f 31/105/30 32/106/30 40/107/30 39/108/30
f 32/109/31 33/110/31 41/111/31 40/112/31
f 33/113/32 26/114/32 34/115/32 41/116/32
f 34/117/33 35/118/33 43/119/33 42/120/33
f 35/121/34 36/122/34 44/123/34 43/124/34
f 36/125/35 37/126/35 45/127/35 44/128/35
f 37/129/36 38/130/36 46/131/36 45/132/36
f 38/133/37 39/134/37 47/135/37 46/136/37
f 39/137/38 40/138/38 48/139/38 47/140/38
f 40/141/39 41/142/39 49/143/39 48/144/39
f 41/145/40 34/146/40 42/147/40 49/148/40
f 42/149/41 43/150/41 51/151/41 50/152/41
f 43/153/42 44/154/42 52/155/42 51/156/42
f 44/157/43 45/158/43 53/159/43 52/160/43
f 45/161/44 46/162/44 54/163/44 53/164/44
f 46/165/45 47/166/45 55/167/45 54/168/45
f 47/169/46 48/170/46 56/171/46 55/172/46
f 48/173/47 49/174/47 57/175/47 56/176/47
f 49/177/48 42/178/48 50/179/48 57/180/48
f 50/181/49 51/182/49 59/183/49 58/184/49
f 51/185/50 52/186/50 60/187/50 59/188/50
f 52/189/51 53/190/51 61/191/51 60/192/51
f 53/193/52 54/194/52 62/195/52 61/196/52
f 54/197/53 55/198/53 63/199/53 62/200/53
f 55/201/54 56/202/54 64/203/54 63/204/54
f 56/205/55 57/206/55 65/207/55 64/208/55
f 57/209/56 50/210/56 58/211/56 65/212/56
f 58/213/57 59/214/57 67/215/57 66/216/57
f 59/217/58 60/218/58 68/219/58 67/220/58
f 60/221/59 61/222/59 69/223/59 68/224/59
f 61/225/60 62/226/60 70/227/60 69/228/60
f 62/229/61 63/230/61 71/231/61 70/232/61
f 63/233/62 64/234/62 72/235/62 71/236/62
f 64/237/63 65/238/63 73/239/63 72/240/63
f 65/241/64 58/242/64 66/243/64 73/244/64
f 26/245/65 33/246/65 32/247/65 31/248/65
f 31/249/66 30/250/66 29/251/66 28/252/66
f 28/253/67 27/254/67 26/255/67 31/256/67