# Made in Blockbench 4.11.1
mtllib beer.mtl

o sphere_selection
v 0 0.09375 0
v 0.09060921676911456 0.125 0.21875
v 0.07701395100160012 0.03282039161544276 0.18592812499999997
v 0.21875 0.125 0.09060921676911457
v 0.185928125 0.03282039161544276 0.0770139510016001
v 0.21875 0.125 -0.09060921676911454
v 0.185928125 0.03282039161544276 -0.07701395100160009
v 0.09060921676911458 0.125 -0.21875
v 0.07701395100160013 0.03282039161544276 -0.18592812499999992
v -0.09060921676911453 0.125 -0.21875000000000003
v -0.07701395100160009 0.03282039161544276 -0.18592812500000003
v -0.21874999999999997 0.125 -0.09060921676911468
v -0.18592812499999997 0.03282039161544276 -0.0770139510016002
v -0.21875 0.125 0.0906092167691146
v -0.185928125 0.03282039161544276 0.07701395100160013
v -0.0906092167691147 0.125 0.21874999999999997
v -0.07701395100160024 0.03282039161544276 0.18592812499999992
v 0.05436553006146875 1.0921796083845572 0.13124999999999998
v 0.09060921676911456 0.9375 0.21875
v 0.13125 1.0921796083845572 0.05436553006146874
v 0.21875 0.9375 0.09060921676911457
v 0.13125 1.0921796083845572 -0.054365530061468735
v 0.21875 0.9375 -0.09060921676911454
v 0.054365530061468756 1.0921796083845572 -0.13125000000000003
v 0.09060921676911458 0.9375 -0.21875
v -0.05436553006146872 1.0921796083845572 -0.13125000000000003
v -0.09060921676911453 0.9375 -0.21875000000000003
v -0.13125 1.0921796083845572 -0.054365530061468825
v -0.21874999999999997 0.9375 -0.09060921676911468
v -0.13125 1.0921796083845572 0.05436553006146876
v -0.21875 0.9375 0.0906092167691146
v -0.05436553006146883 1.0921796083845572 0.13124999999999998
v -0.0906092167691147 0.9375 0.21874999999999997
v 0.03818204396712429 1.6546796083845572 0.09217960838455723
v 0.09217960838455724 1.6546796083845572 0.03818204396712428
v 0.09217960838455724 1.6546796083845572 -0.03818204396712428
v 0.038182043967124296 1.6546796083845572 -0.09217960838455726
v -0.03818204396712427 1.6546796083845572 -0.09217960838455726
v -0.09217960838455723 1.6546796083845572 -0.038182043967124345
v -0.09217960838455724 1.6546796083845572 0.038182043967124296
v -0.038182043967124345 1.6546796083845572 0.09217960838455723
v 0 1.2967903072638958 -6.938893903907227e-18
v 0.04530460838455728 1.6307852688559086 0.10937499999999999
v 0.03850697550080006 1.5953203916154428 0.09296406249999999
v 0.109375 1.6307852688559086 0.04530460838455728
v 0.0929640625 1.5953203916154428 0.038506975500800046
v 0.109375 1.6307852688559086 -0.045304608384557285
v 0.0929640625 1.5953203916154428 -0.03850697550080005
v 0.04530460838455729 1.6307852688559086 -0.10937500000000001
v 0.03850697550080007 1.5953203916154428 -0.09296406249999996
v -0.04530460838455727 1.6307852688559086 -0.10937500000000001
v -0.03850697550080005 1.5953203916154428 -0.09296406250000001
v -0.10937499999999999 1.6307852688559086 -0.04530460838455735
v -0.09296406249999999 1.5953203916154428 -0.038506975500800115
v -0.109375 1.6307852688559086 0.04530460838455729
v -0.0929640625 1.5953203916154428 0.03850697550080006
v -0.04530460838455735 1.6307852688559086 0.10937499999999999
v -0.03850697550080012 1.5953203916154428 0.09296406249999996
v 0.032035195807721364 1.8238798644378036 0.07733980419227861
v 0.04530460838455728 1.802744961592013 0.10937499999999999
v 0.07733980419227862 1.8238798644378036 0.03203519580772136
v 0.109375 1.802744961592013 0.04530460838455728
v 0.07733980419227862 1.8238798644378036 -0.032035195807721364
v 0.109375 1.802744961592013 -0.045304608384557285
v 0.03203519580772137 1.8238798644378036 -0.07733980419227864
v 0.04530460838455729 1.802744961592013 -0.10937500000000001
v -0.03203519580772135 1.8238798644378036 -0.07733980419227864
v -0.04530460838455727 1.802744961592013 -0.10937500000000001
v -0.07733980419227861 1.8238798644378036 -0.03203519580772141
v -0.10937499999999999 1.802744961592013 -0.04530460838455735
v -0.07733980419227862 1.8238798644378036 0.03203519580772137
v -0.109375 1.802744961592013 0.04530460838455729
v -0.03203519580772141 1.8238798644378036 0.07733980419227861
v -0.04530460838455735 1.802744961592013 0.10937499999999999
v 0.07733980419227862 1.4488798644378036 -0.032035195807721364
v 0.07733980419227862 1.4488798644378036 0.03203519580772136
v 0.03203519580772137 1.4488798644378036 -0.07733980419227864
v -0.03203519580772135 1.4488798644378036 -0.07733980419227864
v -0.07733980419227861 1.4488798644378036 -0.03203519580772141
v -0.07733980419227862 1.4488798644378036 0.03203519580772137
v -0.03203519580772141 1.4488798644378036 0.07733980419227861
v 0.032035195807721364 1.4488798644378036 0.07733980419227861
vt 0.329696875 0.6114828125
vt 0.3330953125 0.5870203125
vt 0.3716015625 0.5870203125
vt 0.375 0.6114828125
vt 0.37835283363828115 0.9246841044612394
vt 0.406528125 0.8984375
vt 0.42578125 0.9473515625
vt 0.0007859375000000002 0.6114828125
vt 0.004184375000000001 0.5870203125
vt 0.042690624999999996 0.5870203125
vt 0.0460890625 0.6114828125
vt 0.3756269697181904 0.9630937511004841
vt 0.37835283363828115 0.9246841044612394
vt 0.42578125 0.9473515625
vt 0.234375 0.6114828125
vt 0.2377734375 0.5870203125
vt 0.2762796875 0.5870203125
vt 0.279678125 0.6114828125
vt 0.3998131938422034 0.9930563586586643
vt 0.3756269697181904 0.9630937511004842
vt 0.42578125 0.9473515625
vt 0.1414109375 0.6114828125
vt 0.144809375 0.5870203125
vt 0.18331562499999998 0.5870203125
vt 0.1867140625 0.6114828125
vt 0.43793351511058953 0.9984944093625034
vt 0.3998131938422034 0.9930563586586643
vt 0.42578125 0.9473515625
vt 0.282821875 0.6114828125
vt 0.2862203125 0.5870203125
vt 0.3247265625 0.5870203125
vt 0.328125 0.6114828125
vt 0.4759355302818096 0.9630937511004842
vt 0.4517493061577966 0.9930563586586643
vt 0.42578125 0.9473515625
vt 0.0476609375 0.6114828125
vt 0.051059375000000004 0.5870203125
vt 0.089565625 0.5870203125
vt 0.0929640625 0.6114828125
vt 0.47320966636171885 0.9246841044612394
vt 0.4759355302818096 0.9630937511004841
vt 0.42578125 0.9473515625
vt 0.1875 0.6114828125
vt 0.19089843750000002 0.5870203125
vt 0.22940468749999998 0.5870203125
vt 0.232803125 0.6114828125
vt 0.445034375 0.8984375
vt 0.47320966636171885 0.9246841044612394
vt 0.42578125 0.9473515625
vt 0.0945359375 0.6114828125
vt 0.097934375 0.5870203125
vt 0.13644062499999998 0.5870203125
vt 0.1398390625 0.6114828125
vt 0.406528125 0.8984375
vt 0.445034375 0.8984375
vt 0.42578125 0.9473515625
vt 0.3387578125 0.8590359375000001
vt 0.329696875 0.8146078125
vt 0.375 0.8146078125
vt 0.3659390625 0.8590359375000001
vt 0.009846875 0.8590359375000001
vt 0.0007859375000000002 0.8146078125
vt 0.0460890625 0.8146078125
vt 0.037028125 0.8590359375000001
vt 0.2434359375 0.8590359375000001
vt 0.234375 0.8146078125
vt 0.279678125 0.8146078125
vt 0.2706171875 0.8590359375000001
vt 0.150471875 0.8590359375000001
vt 0.1414109375 0.8146078125
vt 0.1867140625 0.8146078125
vt 0.177653125 0.8590359375000001
vt 0.2918828125 0.8590359375000001
vt 0.282821875 0.8146078125
vt 0.328125 0.8146078125
vt 0.3190640625 0.8590359375000001
vt 0.056721875 0.8590359375000001
vt 0.0476609375 0.8146078125
vt 0.0929640625 0.8146078125
vt 0.083903125 0.8590359375000001
vt 0.1965609375 0.8590359375000001
vt 0.1875 0.8146078125
vt 0.232803125 0.8146078125
vt 0.2237421875 0.8590359375000001
vt 0.103596875 0.8590359375000001
vt 0.0945359375 0.8146078125
vt 0.1398390625 0.8146078125
vt 0.130778125 0.8590359375000001
vt 0.0007859375000000002 0.8146078125
vt 0.0007859375000000002 0.6114828125
vt 0.0460890625 0.6114828125
vt 0.0460890625 0.8146078125
vt 0.329696875 0.8146078125
vt 0.329696875 0.6114828125
vt 0.375 0.6114828125
vt 0.375 0.8146078125
vt 0.1398390625 0.6114828125
vt 0.1398390625 0.8146078125
vt 0.0945359375 0.8146078125
vt 0.0945359375 0.6114828125
vt 0.232803125 0.6114828125
vt 0.232803125 0.8146078125
vt 0.1875 0.8146078125
vt 0.1875 0.6114828125
vt 0.0476609375 0.8146078125
vt 0.0476609375 0.6114828125
vt 0.0929640625 0.6114828125
vt 0.0929640625 0.8146078125
vt 0.282821875 0.6114828125
vt 0.328125 0.6114828125
vt 0.328125 0.8146078125
vt 0.282821875 0.8146078125
vt 0.1414109375 0.6114828125
vt 0.1867140625 0.6114828125
vt 0.1867140625 0.8146078125
vt 0.1414109375 0.8146078125
vt 0.234375 0.6114828125
vt 0.279678125 0.6114828125
vt 0.279678125 0.8146078125
vt 0.234375 0.8146078125
vt 0.3659390625 0.8590359375000001
vt 0.36189375 1
vt 0.342803125 1
vt 0.3387578125 0.8590359375000001
vt 0.037028125 0.8590359375000001
vt 0.0329828125 1
vt 0.0138921875 1
vt 0.009846875 0.8590359375000001
vt 0.27061718749999997 0.8590359375000001
vt 0.266571875 1
vt 0.24748124999999999 1
vt 0.2434359375 0.8590359375000001
vt 0.177653125 0.8590359375000001
vt 0.1736078125 1
vt 0.1545171875 1
vt 0.150471875 0.8590359375000001
vt 0.31906406249999997 0.8590359375000001
vt 0.31501875 1
vt 0.295928125 1
vt 0.2918828125 0.8590359375000001
vt 0.083903125 0.8590359375000001
vt 0.0798578125 1
vt 0.0607671875 1
vt 0.056721875 0.8590359375000001
vt 0.2237421875 0.8590359375000001
vt 0.219696875 1
vt 0.20060624999999999 1
vt 0.1965609375 0.8590359375000001
vt 0.130778125 0.8590359375000001
vt 0.1267328125 1
vt 0.1076421875 1
vt 0.103596875 0.8590359375000001
vt 0.094534375 0.5351359375
vt 0.096234375 0.5253656250000001
vt 0.11548749999999999 0.5253656250000001
vt 0.1171875 0.5351359375
vt 0.11548749999999999 0.5253656250000001
vt 0.096234375 0.5253656250000001
vt 0.1058609375 0.4471984375
vt 0.3753921875 0.8476359375
vt 0.3770921875 0.8378656250000001
vt 0.3963453125 0.8378656250000001
vt 0.39804531249999997 0.8476359375
vt 0.3963453125 0.8378656250000001
vt 0.3770921875 0.8378656250000001
vt 0.38671875 0.7596984375
vt 0.0625 0.5351359375
vt 0.06420000000000001 0.5253656250000001
vt 0.083453125 0.5253656250000001
vt 0.085153125 0.5351359375
vt 0.083453125 0.5253656250000001
vt 0.06420000000000001 0.5253656250000001
vt 0.0738265625 0.4471984375
vt 0.3910171875 0.5976359375
vt 0.3927171875 0.5878656250000001
vt 0.4119703125 0.5878656250000001
vt 0.41367031249999997 0.5976359375
vt 0.4119703125 0.5878656250000001
vt 0.3927171875 0.5878656250000001
vt 0.40234375 0.5096984375
vt 0.032034375000000004 0.5351359375
vt 0.033734375 0.5253656250000001
vt 0.0529875 0.5253656250000001
vt 0.0546875 0.5351359375
vt 0.0529875 0.5253656250000001
vt 0.033734375 0.5253656250000001
vt 0.0433609375 0.4471984375
vt 0.4066421875 0.8476359375
vt 0.4083421875 0.8378656250000001
vt 0.4275953125 0.8378656250000001
vt 0.42929531249999997 0.8476359375
vt 0.4275953125 0.8378656250000001
vt 0.4083421875 0.8378656250000001
vt 0.41796875 0.7596984375
vt 0 0.5351359375
vt 0.0017000000000000001 0.5253656250000001
vt 0.020953125 0.5253656250000001
vt 0.022653125 0.5351359375
vt 0.020953125 0.5253656250000001
vt 0.0017000000000000001 0.5253656250000001
vt 0.0113265625 0.4471984375
vt 0.3753921875 0.7070109375
vt 0.3770921875 0.6972406250000001
vt 0.3963453125 0.6972406250000001
vt 0.39804531249999997 0.7070109375
vt 0.3963453125 0.6972406250000001
vt 0.3770921875 0.6972406250000001
vt 0.38671875 0.6190734375
vt 0.258009375 0.5682317344695553
vt 0.26132656249999997 0.5586364219695553
vt 0.2791429773721157 0.5726271129235533
vt 0.2706079324057753 0.578125
vt 0.409959375 0.65625
vt 0.4066421875 0.640625
vt 0.42929531249999997 0.640625
vt 0.425978125 0.65625
vt 0.43251706759422476 0.78125
vt 0.4239820226278843 0.7757521129235533
vt 0.44179843750000003 0.7617614219695553
vt 0.445115625 0.7713567344695553
vt 0.445115625 0.7713567344695553
vt 0.44179843750000003 0.7617614219695553
vt 0.46445156249999997 0.7617614219695553
vt 0.461134375 0.7713567344695553
vt 0.461134375 0.7713567344695553
vt 0.46445156249999997 0.7617614219695553
vt 0.4822679773721157 0.7757521129235533
vt 0.4737329324057753 0.78125
vt 0.425584375 0.75
vt 0.4222671875 0.734375
vt 0.44492031249999997 0.734375
vt 0.441603125 0.75
vt 0.22939206759422473 0.578125
vt 0.22085702262788431 0.5726271129235533
vt 0.2386734375 0.5586364219695553
vt 0.24199062500000001 0.5682317344695553
vt 0.24199062500000001 0.5682317344695553
vt 0.2386734375 0.5586364219695553
vt 0.26132656249999997 0.5586364219695553
vt 0.258009375 0.5682317344695553
vt 0.3753921875 0.890625
vt 0.3753921875 0.8476359375
vt 0.39804531249999997 0.8476359375
vt 0.39804531249999997 0.890625
vt 0.094534375 0.578125
vt 0.094534375 0.5351359375
vt 0.1171875 0.5351359375
vt 0.1171875 0.578125
vt 0.39804531249999997 0.7070109375
vt 0.39804531249999997 0.75
vt 0.3753921875 0.75
vt 0.3753921875 0.7070109375
vt 0.022653125 0.5351359375
vt 0.022653125 0.578125
vt 0 0.578125
vt 0 0.5351359375
vt 0.4066421875 0.890625
vt 0.4066421875 0.8476359375
vt 0.42929531249999997 0.8476359375
vt 0.42929531249999997 0.890625
vt 0.032034375000000004 0.5351359375
vt 0.0546875 0.5351359375
vt 0.0546875 0.578125
vt 0.032034375000000004 0.578125
vt 0.3910171875 0.5976359375
vt 0.41367031249999997 0.5976359375
vt 0.41367031249999997 0.640625
vt 0.3910171875 0.640625
vt 0.0625 0.5351359375
vt 0.085153125 0.5351359375
vt 0.085153125 0.578125
vt 0.0625 0.578125
vt 0.375 0.609375
vt 0.375 0.515625
vt 0.390625 0.515625
vt 0.390625 0.609375
vt 0.171875 0.578125
vt 0.171875 0.484375
vt 0.1875 0.484375
vt 0.1875 0.578125
vt 0.40625 0.75
vt 0.40625 0.65625
vt 0.421875 0.65625
vt 0.421875 0.75
vt 0.203125 0.578125
vt 0.203125 0.484375
vt 0.21875 0.484375
vt 0.21875 0.578125
vt 0.140625 0.578125
vt 0.140625 0.484375
vt 0.15625 0.484375
vt 0.15625 0.578125
vt 0.15625 0.578125
vt 0.15625 0.484375
vt 0.171875 0.484375
vt 0.171875 0.578125
vt 0.125 0.578125
vt 0.125 0.484375
vt 0.140625 0.484375
vt 0.140625 0.578125
vt 0.1875 0.578125
vt 0.1875 0.484375
vt 0.203125 0.484375
vt 0.203125 0.578125
vn 0.6661393398461358 -0.33543517975714565 0.666139339846136
vn -0.22020028014085272 -0.9502755775309497 -0.22020028014085274
vn 0.9420632888406657 -0.33543517975714543 0
vn -0.31141022261354884 -0.9502755775309497 0
vn 0.6661393398461357 -0.3354351797571455 -0.666139339846136
vn -0.22020028014085272 -0.9502755775309497 0.22020028014085277
vn 6.906011983914384e-16 -0.33543517975714626 -0.9420632888406656
vn -2.24462447876505e-16 -0.9502755775309497 0.31141022261354884
vn -0.6661393398461357 -0.3354351797571455 -0.6661393398461362
vn 0.22020028014085266 -0.9502755775309497 0.22020028014085274
vn -0.9420632888406658 -0.33543517975714543 -1.726502995978595e-16
vn 0.3114102226135489 -0.9502755775309498 5.611561196912623e-17
vn -0.6661393398461359 -0.3354351797571456 0.6661393398461358
vn 0.22020028014085272 -0.9502755775309497 -0.22020028014085266
vn -3.4530059919571884e-16 -0.33543517975714593 0.9420632888406656
vn 1.1223122393825241e-16 -0.9502755775309497 -0.3114102226135489
vn 0.6154574548966635 0.4923659639173313 0.6154574548966637
vn 0.8703882797784891 0.4923659639173312 0
vn 0.6154574548966638 0.49236596391733106 -0.6154574548966636
vn 1.6159544284187135e-16 0.49236596391733106 -0.8703882797784891
vn -0.6154574548966633 0.4923659639173312 -0.6154574548966639
vn -0.8703882797784893 0.49236596391733106 -1.615954428418712e-16
vn -0.6154574548966637 0.4923659639173313 0.6154574548966635
vn -1.0773029522791414e-16 0.4923659639173312 0.8703882797784891
vn 1 0 0
vn 0.7071067811865475 0 0.7071067811865476
vn -1.5316088476051023e-16 0 1
vn -0.7071067811865478 0 0.7071067811865474
vn -1 0 -1.5316088476051023e-16
vn -0.7071067811865472 0 -0.7071067811865478
vn 1.5316088476051033e-16 0 -1
vn 0.7071067811865477 0 -0.7071067811865475
vn 0.7054072172305577 0.06929152731814853 0.7054072172305578
vn 0.9975964536033187 0.0692915273181485 0
vn 0.7054072172305579 0.06929152731814853 -0.7054072172305574
vn 0 0.06929152731814853 -0.9975964536033187
vn -0.7054072172305573 0.06929152731814855 -0.705407217230558
vn -0.9975964536033187 0.0692915273181485 -1.6115116441010826e-16
vn -0.7054072172305579 0.06929152731814853 0.7054072172305574
vn 0 0.0692915273181485 0.9975964536033187
vn 0.64173109302121 -0.4199552458293694 0.6417310930212101
vn 0.6751292027092314 -0.29732325724435893 0.6751292027092314
vn 0.9075448151471057 -0.41995524582936933 0
vn 0.9547768748255294 -0.29732325724435893 0
vn 0.6417310930212099 -0.4199552458293695 -0.6417310930212102
vn 0.6751292027092313 -0.29732325724435893 -0.6751292027092315
vn 6.484597029681903e-16 -0.41995524582937055 -0.907544815147105
vn 6.881969149907204e-16 -0.297323257244359 -0.9547768748255296
vn -0.6417310930212099 -0.41995524582936933 -0.6417310930212102
vn -0.6751292027092312 -0.29732325724435904 -0.6751292027092316
vn -0.9075448151471056 -0.4199552458293692 -1.4410215621515337e-16
vn -0.9547768748255295 -0.2973232572443589 -1.7204922874767993e-16
vn -0.6417310930212102 -0.4199552458293696 0.64173109302121
vn -0.6751292027092315 -0.29732325724435904 0.6751292027092313
vn -3.2422985148409494e-16 -0.4199552458293698 0.9075448151471053
vn -3.440984574953598e-16 -0.2973232572443589 0.9547768748255295
vn 0.3893973942987004 0.8347091341459999 0.38939739429870046
vn 0.550691076169966 0.834709134146 0
vn 0.38939739429870046 0.8347091341459999 -0.38939739429870035
vn 0 0.834709134146 -0.550691076169966
vn -0.38939739429870024 0.8347091341459999 -0.3893973942987005
vn -0.5506910761699659 0.8347091341459999 -9.353344590032514e-17
vn -0.3893973942987006 0.8347091341460001 0.3893973942987003
vn 0 0.8347091341459999 0.5506910761699659
vn 1 0 0
vn 0.7071067811865474 0 0.7071067811865477
vn 0 0 1
vn -0.7071067811865478 0 0.7071067811865472
vn -1 0 -1.531608847605102e-16
vn -0.7071067811865472 0 -0.7071067811865478
vn 0 0 -1
vn 0.7071067811865477 0 -0.7071067811865474
vn -1 0 0
vn -0.7071067811865477 0 0.7071067811865474
vn 0 0 1
vn 0.7071067811865472 0 0.7071067811865478
vn 1 0 2.1660220045337627e-16
vn 0.7071067811865478 0 -0.7071067811865474
vn 0 0 -1
vn -0.7071067811865475 0 -0.7071067811865476
usemtl m_509025ce-b576-e1b7-cab3-92315c9c9c4c
f 2/1/1 3/2/1 5/3/1 4/4/1
f 5/5/2 3/6/2 1/7/2
f 4/8/3 5/9/3 7/10/3 6/11/3
f 7/12/4 5/13/4 1/14/4
f 6/15/5 7/16/5 9/17/5 8/18/5
f 9/19/6 7/20/6 1/21/6
f 8/22/7 9/23/7 11/24/7 10/25/7
f 11/26/8 9/27/8 1/28/8
f 10/29/9 11/30/9 13/31/9 12/32/9
f 13/33/10 11/34/10 1/35/10
f 12/36/11 13/37/11 15/38/11 14/39/11
f 15/40/12 13/41/12 1/42/12
f 14/43/13 15/44/13 17/45/13 16/46/13
f 17/47/14 15/48/14 1/49/14
f 16/50/15 17/51/15 3/52/15 2/53/15
f 3/54/16 17/55/16 1/56/16
f 18/57/17 19/58/17 21/59/17 20/60/17
f 20/61/18 21/62/18 23/63/18 22/64/18
f 22/65/19 23/66/19 25/67/19 24/68/19
f 24/69/20 25/70/20 27/71/20 26/72/20
f 26/73/21 27/74/21 29/75/21 28/76/21
f 28/77/22 29/78/22 31/79/22 30/80/22
f 30/81/23 31/82/23 33/83/23 32/84/23
f 32/85/24 33/86/24 19/87/24 18/88/24
f 21/89/25 4/90/25 6/91/25 23/92/25
f 19/93/26 2/94/26 4/95/26 21/96/26
f 2/97/27 19/98/27 33/99/27 16/100/27
f 16/101/28 33/102/28 31/103/28 14/104/28
f 29/105/29 12/106/29 14/107/29 31/108/29
f 10/109/30 12/110/30 29/111/30 27/112/30
f 8/113/31 10/114/31 27/115/31 25/116/31
f 6/117/32 8/118/32 25/119/32 23/120/32
f 20/121/33 35/122/33 34/123/33 18/124/33
f 22/125/34 36/126/34 35/127/34 20/128/34
f 24/129/35 37/130/35 36/131/35 22/132/35
f 26/133/36 38/134/36 37/135/36 24/136/36
f 28/137/37 39/138/37 38/139/37 26/140/37
f 30/141/38 40/142/38 39/143/38 28/144/38
f 32/145/39 41/146/39 40/147/39 30/148/39
f 18/149/40 34/150/40 41/151/40 32/152/40
f 43/153/41 44/154/41 46/155/41 45/156/41
f 46/157/42 44/158/42 42/159/42
f 45/160/43 46/161/43 48/162/43 47/163/43
f 48/164/44 46/165/44 42/166/44
f 47/167/45 48/168/45 50/169/45 49/170/45
f 50/171/46 48/172/46 42/173/46
f 49/174/47 50/175/47 52/176/47 51/177/47
f 52/178/48 50/179/48 42/180/48
f 51/181/49 52/182/49 54/183/49 53/184/49
f 54/185/50 52/186/50 42/187/50
f 53/188/51 54/189/51 56/190/51 55/191/51
f 56/192/52 54/193/52 42/194/52
f 55/195/53 56/196/53 58/197/53 57/198/53
f 58/199/54 56/200/54 42/201/54
f 57/202/55 58/203/55 44/204/55 43/205/55
f 44/206/56 58/207/56 42/208/56
f 59/209/57 60/210/57 62/211/57 61/212/57
f 61/213/58 62/214/58 64/215/58 63/216/58
f 63/217/59 64/218/59 66/219/59 65/220/59
f 65/221/60 66/222/60 68/223/60 67/224/60
f 67/225/61 68/226/61 70/227/61 69/228/61
f 69/229/62 70/230/62 72/231/62 71/232/62
f 71/233/63 72/234/63 74/235/63 73/236/63
f 73/237/64 74/238/64 60/239/64 59/240/64
f 62/241/65 45/242/65 47/243/65 64/244/65
f 60/245/66 43/246/66 45/247/66 62/248/66
f 43/249/67 60/250/67 74/251/67 57/252/67
f 57/253/68 74/254/68 72/255/68 55/256/68
f 70/257/69 53/258/69 55/259/69 72/260/69
f 51/261/70 53/262/70 70/263/70 68/264/70
f 49/265/71 51/266/71 68/267/71 66/268/71
f 47/269/72 49/270/72 66/271/72 64/272/72
f 63/273/73 75/274/73 76/275/73 61/276/73
f 65/277/74 77/278/74 75/279/74 63/280/74
f 67/281/75 78/282/75 77/283/75 65/284/75
f 69/285/76 79/286/76 78/287/76 67/288/76
f 71/289/77 80/290/77 79/291/77 69/292/77
f 73/293/78 81/294/78 80/295/78 71/296/78
f 59/297/79 82/298/79 81/299/79 73/300/79
f 61/301/80 76/302/80 82/303/80 59/304/80