{"asset":{"version":"2.0","generator":"Blockbench 4.11.1 glTF exporter"},"scenes":[{"nodes":[8],"name":"blockbench_export"}],"scene":0,"nodes":[{"name":"Body","mesh":0},{"name":"ArmR","mesh":1},{"name":"LegR","mesh":2},{"translation":[-0.75,0,0],"name":"ArmL","mesh":3},{"translation":[-0.625,0,0],"name":"LegL","mesh":4},{"name":"Head","mesh":5},{"translation":[0,0.0625,0.0625],"name":"Brille","mesh":6},{"translation":[0,-0.625,0.0625],"name":"Cape","mesh":7},{"children":[0,1,2,3,4,5,6,7]}],"bufferViews":[{"buffer":0,"byteOffset":0,"byteLength":14136,"target":34962,"byteStride":12},{"buffer":0,"byteOffset":14136,"byteLength":14136,"target":34962,"byteStride":12},{"buffer":0,"byteOffset":28272,"byteLength":9424,"target":34962,"byteStride":8},{"buffer":0,"byteOffset":37696,"byteLength":3132,"target":34963},{"buffer":0,"byteOffset":40828,"byteLength":13668,"target":34962,"byteStride":12},{"buffer":0,"byteOffset":54496,"byteLength":13668,"target":34962,"byteStride":12},{"buffer":0,"byteOffset":68164,"byteLength":9112,"target":34962,"byteStride":8},{"buffer":0,"byteOffset":77276,"byteLength":3308,"target":34963},{"buffer":0,"byteOffset":80584,"byteLength":3264,"target":34962,"byteStride":12},{"buffer":0,"byteOffset":83848,"byteLength":3264,"target":34962,"byteStride":12},{"buffer":0,"byteOffset":87112,"byteLength":2176,"target":34962,"byteStride":8},{"buffer":0,"byteOffset":89288,"byteLength":576,"target":34963},{"buffer":0,"byteOffset":89864,"byteLength":13668,"target":34962,"byteStride":12},{"buffer":0,"byteOffset":103532,"byteLength":13668,"target":34962,"byteStride":12},{"buffer":0,"byteOffset":117200,"byteLength":9112,"target":34962,"byteStride":8},{"buffer":0,"byteOffset":126312,"byteLength":3308,"target":34963},{"buffer":0,"byteOffset":129620,"byteLength":3192,"target":34962,"byteStride":12},{"buffer":0,"byteOffset":132812,"byteLength":3192,"target":34962,"byteStride":12},{"buffer":0,"byteOffset":136004,"byteLength":2128,"target":34962,"byteStride":8},{"buffer":0,"byteOffset":138132,"byteLength":564,"target":34963},{"buffer":0,"byteOffset":138696,"byteLength":2844,"target":34962,"byteStride":12},{"buffer":0,"byteOffset":141540,"byteLength":2844,"target":34962,"byteStride":12},{"buffer":0,"byteOffset":144384,"byteLength":1896,"target":34962,"byteStride":8},{"buffer":0,"byteOffset":146280,"byteLength":476,"target":34963},{"buffer":0,"byteOffset":146756,"byteLength":288,"target":34962,"byteStride":12},{"buffer":0,"byteOffset":147044,"byteLength":288,"target":34962,"byteStride":12},{"buffer":0,"byteOffset":147332,"byteLength":192,"target":34962,"byteStride":8},{"buffer":0,"byteOffset":147524,"byteLength":48,"target":34963},{"buffer":0,"byteOffset":147572,"byteLength":3744,"target":34962,"byteStride":12},{"buffer":0,"byteOffset":151316,"byteLength":3744,"target":34962,"byteStride":12},{"buffer":0,"byteOffset":155060,"byteLength":2496,"target":34962,"byteStride":8},{"buffer":0,"byteOffset":157556,"byteLength":768,"target":34963}],"buffers":[{"byteLength":158324,"uri":"data:application/octet-stream;base64,"}],"accessors":[{"bufferView":0,"componentType":5126,"count":1178,"max":[0.8997771739959717,5.028131008148193,0.7840115427970886],"min":[-0.8997771739959717,2.8129498958587646,-0.17339932918548584],"type":"VEC3"},{"bufferView":1,"componentType":5126,"count":1178,"max":[0.9386631846427917,0.9941118955612183,0.9796212315559387],"min":[-0.9386631846427917,-0.987560510635376,-0.9882563948631287],"type":"VEC3"},{"bufferView":2,"componentType":5126,"count":1178,"max":[0.8675132393836975,0.8675132393836975],"min":[0,0],"type":"VEC2"},{"bufferView":3,"componentType":5123,"count":1566,"max":[1177],"min":[0],"type":"SCALAR"},{"bufferView":4,"componentType":5126,"count":1139,"max":[-0.4374699890613556,4.740890979766846,1.1800504922866821],"min":[-1.58030104637146,2.3070898056030273,-0.11569099873304367],"type":"VEC3"},{"bufferView":5,"componentType":5126,"count":1139,"max":[0.9991693496704102,0.959563136100769,0.9779207706451416],"min":[-0.9968332052230835,-0.9880073666572571,-0.9795976877212524],"type":"VEC3"},{"bufferView":6,"componentType":5126,"count":1139,"max":[0.8575018644332886,0.85546875],"min":[0,0],"type":"VEC2"},{"bufferView":7,"componentType":5123,"count":1653,"max":[1138],"min":[0],"type":"SCALAR"},{"bufferView":8,"componentType":5126,"count":272,"max":[0.28644001483917236,3.41798996925354,0.8163303136825562],"min":[-1.1576114892959595,-0.08368618041276932,-0.1260257512331009],"type":"VEC3"},{"bufferView":9,"componentType":5126,"count":272,"max":[0.9792874455451965,0.9985093474388123,0.8619300127029419],"min":[-0.9998709559440613,-0.9964731931686401,-0.9261022210121155],"type":"VEC3"},{"bufferView":10,"componentType":5126,"count":272,"max":[0.83984375,0.8359375],"min":[0,0],"type":"VEC2"},{"bufferView":11,"componentType":5123,"count":288,"max":[271],"min":[0],"type":"SCALAR"},{"bufferView":12,"componentType":5126,"count":1139,"max":[2.33030104637146,4.740890979766846,1.1800504922866821],"min":[1.1874699592590332,2.3070898056030273,-0.11569099873304367],"type":"VEC3"},{"bufferView":13,"componentType":5126,"count":1139,"max":[0.9968332052230835,0.959563136100769,0.9779207706451416],"min":[-0.9991693496704102,-0.9880073666572571,-0.9795976877212524],"type":"VEC3"},{"bufferView":14,"componentType":5126,"count":1139,"max":[0.8594591617584229,0.8516464233398438],"min":[0,0],"type":"VEC2"},{"bufferView":15,"componentType":5123,"count":1653,"max":[1138],"min":[0],"type":"SCALAR"},{"bufferView":16,"componentType":5126,"count":266,"max":[1.7826114892959595,3.41798996925354,0.8163303136825562],"min":[0.625,-0.08368618041276932,-0.1260257512331009],"type":"VEC3"},{"bufferView":17,"componentType":5126,"count":266,"max":[0.9998709559440613,0.9985093474388123,0.8619300127029419],"min":[-0.9792874455451965,-0.9964731931686401,-0.9261022210121155],"type":"VEC3"},{"bufferView":18,"componentType":5126,"count":266,"max":[0.8368640542030334,0.8359375],"min":[0.0014533025678247213,0.0390625],"type":"VEC2"},{"bufferView":19,"componentType":5123,"count":282,"max":[265],"min":[0],"type":"SCALAR"},{"bufferView":20,"componentType":5126,"count":237,"max":[0.30498000979423523,5.7800798416137695,0.7381489872932434],"min":[-0.30498000979423523,4.86345100402832,-0.19304099678993225],"type":"VEC3"},{"bufferView":21,"componentType":5126,"count":237,"max":[0.9873723983764648,0.9489158987998962,0.9378668069839478],"min":[-0.9873723983764648,-0.9547760486602783,-0.864979088306427],"type":"VEC3"},{"bufferView":22,"componentType":5126,"count":237,"max":[0.8713412284851074,0.8671875],"min":[0.0006911720847710967,0.0012264251708984375],"type":"VEC2"},{"bufferView":23,"componentType":5123,"count":237,"max":[236],"min":[0],"type":"SCALAR"},{"bufferView":24,"componentType":5126,"count":24,"max":[0.30498000979423523,5.34027099609375,0.6756489872932434],"min":[-0.30498000979423523,5.208159923553467,0.3583190143108368],"type":"VEC3"},{"bufferView":25,"componentType":5126,"count":24,"max":[0.7834332585334778,0.49478814005851746,0.8361110091209412],"min":[-0.7834332585334778,0.11213956773281097,0.46924707293510437],"type":"VEC3"},{"bufferView":26,"componentType":5126,"count":24,"max":[1,0.7647040486335754],"min":[0,0],"type":"VEC2"},{"bufferView":27,"componentType":5123,"count":24,"max":[23],"min":[0],"type":"SCALAR"},{"bufferView":28,"componentType":5126,"count":312,"max":[0.7642409801483154,6.4675798416137695,0.6066889762878418],"min":[-0.7642409801483154,2.0704517364501953,-0.3667822480201721],"type":"VEC3"},{"bufferView":29,"componentType":5126,"count":312,"max":[0.9877556562423706,0.9350799918174744,0.9999991655349731],"min":[-0.9877556562423706,-0.47175759077072144,-0.9999993443489075],"type":"VEC3"},{"bufferView":30,"componentType":5126,"count":312,"max":[0.8119938969612122,0.8102360963821411],"min":[0.00033779346267692745,0],"type":"VEC2"},{"bufferView":31,"componentType":5123,"count":384,"max":[311],"min":[0],"type":"SCALAR"}],"materials":[{"pbrMetallicRoughness":{"metallicFactor":0,"roughnessFactor":1,"baseColorTexture":{"index":0}},"alphaMode":"MASK","alphaCutoff":0.05,"doubleSided":true},{"pbrMetallicRoughness":{"metallicFactor":0,"roughnessFactor":1,"baseColorTexture":{"index":1}},"alphaMode":"MASK","alphaCutoff":0.05,"doubleSided":true}],"textures":[{"sampler":0,"source":0,"name":"texture"},{"sampler":1,"source":1,"name":"texture"}],"samplers":[{"magFilter":9728,"minFilter":9728,"wrapS":33071,"wrapT":33071},{"magFilter":9728,"minFilter":9728,"wrapS":33071,"wrapT":33071}],"images":[{"mimeType":"image/png","uri":"data:image/png;base64,"},{"mimeType":"image/png","uri":"data:image/png;base64,"}],"meshes":[{"primitives":[{"mode":4,"attributes":{"POSITION":0,"NORMAL":1,"TEXCOORD_0":2},"indices":3,"material":0}]},{"primitives":[{"mode":4,"attributes":{"POSITION":4,"NORMAL":5,"TEXCOORD_0":6},"indices":7,"material":0}]},{"primitives":[{"mode":4,"attributes":{"POSITION":8,"NORMAL":9,"TEXCOORD_0":10},"indices":11,"material":0}]},{"primitives":[{"mode":4,"attributes":{"POSITION":12,"NORMAL":13,"TEXCOORD_0":14},"indices":15,"material":0}]},{"primitives":[{"mode":4,"attributes":{"POSITION":16,"NORMAL":17,"TEXCOORD_0":18},"indices":19,"material":0}]},{"primitives":[{"mode":4,"attributes":{"POSITION":20,"NORMAL":21,"TEXCOORD_0":22},"indices":23,"material":0}]},{"primitives":[{"mode":4,"attributes":{"POSITION":24,"NORMAL":25,"TEXCOORD_0":26},"indices":27,"material":1}]},{"primitives":[{"mode":4,"attributes":{"POSITION":28,"NORMAL":29,"TEXCOORD_0":30},"indices":31,"material":0}]}]}