# Made in Blockbench 4.11.1
mtllib cigarrette.mtl

o cylinder
v 0 -0.125 0.0625
v 0 0.625 0.0625
v 0.016479687499999996 -0.125 0.090625
v 0.016479687499999996 0.625 0.090625
v 0.032959375 -0.125 0.0625
v 0.032959375 0.625 0.0625
v 0.016479687499999996 -0.125 0.034375
v 0.016479687499999996 0.625 0.034375
v -0.016479687500000003 -0.125 0.034375
v -0.016479687500000003 0.625 0.034375
v -0.032959375 -0.125 0.06249999999999999
v -0.032959375 0.625 0.06249999999999999
v -0.016479687500000013 -0.125 0.09062499999999998
v -0.016479687500000013 0.625 0.09062499999999998
vt 0.829834375 0.965625
vt 0.813353125 0.99375
vt 0.796871875 0.965625
vt 0.5 0.25
vt 0.5625 0.25
vt 0.5625 1
vt 0.5 1
vt 0.813353125 0.81875
vt 0.829834375 0.846875
vt 0.796871875 0.846875
vt 0.813353125 0.9375
vt 0.829834375 0.965625
vt 0.796871875 0.965625
vt 0.25 0.25
vt 0.3125 0.25
vt 0.3125 1
vt 0.25 1
vt 0.829834375 0.846875
vt 0.813353125 0.875
vt 0.796871875 0.846875
vt 0.780390625 0.9375
vt 0.813353125 0.9375
vt 0.796871875 0.965625
vt 0 0.25
vt 0.0625 0.25
vt 0.0625 1
vt 0 1
vt 0.813353125 0.875
vt 0.780390625 0.875
vt 0.796871875 0.846875
vt 0.763915625 0.965625
vt 0.780390625 0.9375
vt 0.796871875 0.965625
vt 0.375 0.25
vt 0.4375 0.25
vt 0.4375 1
vt 0.375 1
vt 0.780390625 0.875
vt 0.763915625 0.846875
vt 0.796871875 0.846875
vt 0.780390625 0.99375
vt 0.763915625 0.965625
vt 0.796871875 0.965625
vt 0.625 0.25
vt 0.6875 0.25
vt 0.6875 1
vt 0.625 1
vt 0.763915625 0.846875
vt 0.780390625 0.81875
vt 0.796871875 0.846875
vt 0.813353125 0.99375
vt 0.780390625 0.99375
vt 0.796871875 0.965625
vt 0.125 0.25
vt 0.1875 0.25
vt 0.1875 1
vt 0.125 1
vt 0.780390625 0.81875
vt 0.813353125 0.81875
vt 0.796871875 0.846875
vn 0 -1 0
vn 0.8627967468332061 0 0.5055509604916569
vn 0 1 0
vn 0 -1 0
vn 0.862796746833206 0 -0.5055509604916568
vn 0 1 0
vn 0 -1 0
vn -1.0526434290558041e-16 0 -1
vn 0 1 0
vn 0 -1 0
vn -0.862796746833206 0 -0.5055509604916568
vn 0 1 0
vn 0 -1 0
vn -0.8627967468332063 0 0.5055509604916566
vn 0 1 0
vn 0 -1 0
vn -3.157930287167411e-16 0 1
vn 0 1 0
usemtl m_aeef1902-de82-fc14-19f8-df5ccb8ec962
f 5/1/1 3/2/1 1/3/1
f 3/4/2 5/5/2 6/6/2 4/7/2
f 4/8/3 6/9/3 2/10/3
f 7/11/4 5/12/4 1/13/4
f 5/14/5 7/15/5 8/16/5 6/17/5
f 6/18/6 8/19/6 2/20/6
f 9/21/7 7/22/7 1/23/7
f 7/24/8 9/25/8 10/26/8 8/27/8
f 8/28/9 10/29/9 2/30/9
f 11/31/10 9/32/10 1/33/10
f 9/34/11 11/35/11 12/36/11 10/37/11
f 10/38/12 12/39/12 2/40/12
f 13/41/13 11/42/13 1/43/13
f 11/44/14 13/45/14 14/46/14 12/47/14
f 12/48/15 14/49/15 2/50/15
f 3/51/16 13/52/16 1/53/16
f 13/54/17 3/55/17 4/56/17 14/57/17
f 14/58/18 4/59/18 2/60/18