{"asset":{"version":"2.0","generator":"Blockbench 4.11.1 glTF exporter"},"scenes":[{"nodes":[3],"name":"blockbench_export"}],"scene":0,"nodes":[{"rotation":[-0.015425408675755913,0.7069384993620076,0.706938520430417,-0.015425408216040317],"translation":[-0.062499999999999986,0.125,0.6875],"name":"Barrel","mesh":0},{"rotation":[0,0,0.5913096483635824,0.8064446042674827],"translation":[0.25,-0.0625,-0.4375],"name":"Ammunition","mesh":1},{"rotation":[0.7071067811865475,0,0,0.7071067811865476],"translation":[-0.062499999999999986,0.125,-0.4375],"name":"Main","mesh":2},{"children":[0,1,2]}],"bufferViews":[{"buffer":0,"byteOffset":0,"byteLength":18960,"target":34962,"byteStride":12},{"buffer":0,"byteOffset":18960,"byteLength":18960,"target":34962,"byteStride":12},{"buffer":0,"byteOffset":37920,"byteLength":12640,"target":34962,"byteStride":8},{"buffer":0,"byteOffset":50560,"byteLength":4272,"target":34963},{"buffer":0,"byteOffset":54832,"byteLength":1824,"target":34962,"byteStride":12},{"buffer":0,"byteOffset":56656,"byteLength":1824,"target":34962,"byteStride":12},{"buffer":0,"byteOffset":58480,"byteLength":1216,"target":34962,"byteStride":8},{"buffer":0,"byteOffset":59696,"byteLength":456,"target":34963},{"buffer":0,"byteOffset":60152,"byteLength":19548,"target":34962,"byteStride":12},{"buffer":0,"byteOffset":79700,"byteLength":19548,"target":34962,"byteStride":12},{"buffer":0,"byteOffset":99248,"byteLength":13032,"target":34962,"byteStride":8},{"buffer":0,"byteOffset":112280,"byteLength":4520,"target":34963}],"buffers":[{"byteLength":116800,"uri":"data:application/octet-stream;base64,"}],"accessors":[{"bufferView":0,"componentType":5126,"count":1580,"max":[0.312426894903183,0.9744554162025452,0.3100031614303589],"min":[-0.312573105096817,-1.3505445718765259,-0.3149968385696411],"type":"VEC3"},{"bufferView":1,"componentType":5126,"count":1580,"max":[1,1,1],"min":[-1,-1,-1],"type":"VEC3"},{"bufferView":2,"componentType":5126,"count":1580,"max":[0.515625,0.4765625],"min":[0,0],"type":"VEC2"},{"bufferView":3,"componentType":5123,"count":2136,"max":[1579],"min":[0],"type":"SCALAR"},{"bufferView":4,"componentType":5126,"count":152,"max":[0.03125,0.09375,0.15625],"min":[-0.29044249653816223,-0.4822390675544739,-0.15625],"type":"VEC3"},{"bufferView":5,"componentType":5126,"count":152,"max":[1,1,1],"min":[-1,-1,-1],"type":"VEC3"},{"bufferView":6,"componentType":5126,"count":152,"max":[0.458984375,0.47265625],"min":[0.015625,0.203125],"type":"VEC2"},{"bufferView":7,"componentType":5123,"count":228,"max":[151],"min":[0],"type":"SCALAR"},{"bufferView":8,"componentType":5126,"count":1629,"max":[0.6060988903045654,0.5,0.3125],"min":[-0.437573105096817,-0.900551974773407,-0.6047660708427429],"type":"VEC3"},{"bufferView":9,"componentType":5126,"count":1629,"max":[1,1,1],"min":[-1,-1,-1],"type":"VEC3"},{"bufferView":10,"componentType":5126,"count":1629,"max":[0.484375,0.484375],"min":[0,0],"type":"VEC2"},{"bufferView":11,"componentType":5123,"count":2259,"max":[1628],"min":[0],"type":"SCALAR"}],"materials":[{"pbrMetallicRoughness":{"metallicFactor":0,"roughnessFactor":1,"baseColorTexture":{"index":0}},"alphaMode":"MASK","alphaCutoff":0.05,"doubleSided":true}],"textures":[{"sampler":0,"source":0,"name":"minigun"}],"samplers":[{"magFilter":9728,"minFilter":9728,"wrapS":33071,"wrapT":33071}],"images":[{"mimeType":"image/png","uri":"data:image/png;base64,"}],"meshes":[{"primitives":[{"mode":4,"attributes":{"POSITION":0,"NORMAL":1,"TEXCOORD_0":2},"indices":3,"material":0}]},{"primitives":[{"mode":4,"attributes":{"POSITION":4,"NORMAL":5,"TEXCOORD_0":6},"indices":7,"material":0}]},{"primitives":[{"mode":4,"attributes":{"POSITION":8,"NORMAL":9,"TEXCOORD_0":10},"indices":11,"material":0}]}]}