{"asset":{"version":"2.0","generator":"Blockbench 4.11.1 glTF exporter"},"scenes":[{"nodes":[1],"name":"blockbench_export"}],"scene":0,"nodes":[{"rotation":[0,0,-0.7071067811865475,0.7071067811865476],"name":"Sniper","mesh":0},{"children":[0]}],"bufferViews":[{"buffer":0,"byteOffset":0,"byteLength":18108,"target":34962,"byteStride":12},{"buffer":0,"byteOffset":18108,"byteLength":18108,"target":34962,"byteStride":12},{"buffer":0,"byteOffset":36216,"byteLength":12072,"target":34962,"byteStride":8},{"buffer":0,"byteOffset":48288,"byteLength":4352,"target":34963}],"buffers":[{"byteLength":52640,"uri":"data:application/octet-stream;base64,"}],"accessors":[{"bufferView":0,"componentType":5126,"count":1509,"max":[0.3514540195465088,0.12492689490318298,1.66195547580719],"min":[-0.2556218206882477,-0.12507310509681702,-1.5586786270141602],"type":"VEC3"},{"bufferView":1,"componentType":5126,"count":1509,"max":[1,1,1],"min":[-1,-1,-1],"type":"VEC3"},{"bufferView":2,"componentType":5126,"count":1509,"max":[0.921875,0.7467235326766968],"min":[0,0],"type":"VEC2"},{"bufferView":3,"componentType":5123,"count":2175,"max":[1508],"min":[0],"type":"SCALAR"}],"materials":[{"pbrMetallicRoughness":{"metallicFactor":0,"roughnessFactor":1,"baseColorTexture":{"index":0}},"alphaMode":"MASK","alphaCutoff":0.05,"doubleSided":true}],"textures":[{"sampler":0,"source":0,"name":"texture"}],"samplers":[{"magFilter":9728,"minFilter":9728,"wrapS":33071,"wrapT":33071}],"images":[{"mimeType":"image/png","uri":"data:image/png;base64,"}],"meshes":[{"primitives":[{"mode":4,"attributes":{"POSITION":0,"NORMAL":1,"TEXCOORD_0":2},"indices":3,"material":0}]}]}