{"asset":{"version":"2.0","generator":"Blockbench 4.11.1 glTF exporter"},"scenes":[{"nodes":[17],"name":"blockbench_export"}],"scene":0,"nodes":[{"name":"Body","mesh":0},{"translation":[-0.625,0,0],"name":"Hip","mesh":1},{"translation":[0,-4.9375,-0.1875],"name":"Brille","mesh":2},{"translation":[0,-0.0625,0],"name":"Head","mesh":3},{"translation":[0,5,0.25],"name":"Head","children":[2,3]},{"translation":[0.0625,0,-0.0625],"name":"ArmL","mesh":4},{"translation":[0.0625,0,-0.0625],"name":"ArmL_selection","mesh":5},{"translation":[0.5,4.5,0.0625],"name":"ArmL","children":[5,6]},{"translation":[-0.0625,0,0],"name":"ArmR","mesh":6},{"translation":[-0.5625,-0.8125,0.0625],"name":"ArmR_selection","mesh":7},{"translation":[-0.5,4.5,0],"name":"ArmR","children":[8,9]},{"translation":[-0.875,-2.9375,-0.375],"name":"LegL","mesh":8},{"translation":[-0.875,-2.9375,-0.375],"name":"LegL_selection","mesh":9},{"translation":[0.25,2.9375,0.375],"name":"LegL","children":[11,12]},{"translation":[0.25,-2.9375,-0.375],"name":"LegR","mesh":10},{"translation":[0.25,-2.9375,-0.375],"name":"LegR_selection","mesh":11},{"translation":[-0.25,2.9375,0.375],"name":"LegR","children":[14,15]},{"children":[0,1,4,7,10,13,16]}],"bufferViews":[{"buffer":0,"byteOffset":0,"byteLength":20160,"target":34962,"byteStride":12},{"buffer":0,"byteOffset":20160,"byteLength":20160,"target":34962,"byteStride":12},{"buffer":0,"byteOffset":40320,"byteLength":13440,"target":34962,"byteStride":8},{"buffer":0,"byteOffset":53760,"byteLength":4608,"target":34963},{"buffer":0,"byteOffset":58368,"byteLength":2124,"target":34962,"byteStride":12},{"buffer":0,"byteOffset":60492,"byteLength":2124,"target":34962,"byteStride":12},{"buffer":0,"byteOffset":62616,"byteLength":1416,"target":34962,"byteStride":8},{"buffer":0,"byteOffset":64032,"byteLength":500,"target":34963},{"buffer":0,"byteOffset":64532,"byteLength":288,"target":34962,"byteStride":12},{"buffer":0,"byteOffset":64820,"byteLength":288,"target":34962,"byteStride":12},{"buffer":0,"byteOffset":65108,"byteLength":192,"target":34962,"byteStride":8},{"buffer":0,"byteOffset":65300,"byteLength":48,"target":34963},{"buffer":0,"byteOffset":65348,"byteLength":3048,"target":34962,"byteStride":12},{"buffer":0,"byteOffset":68396,"byteLength":3048,"target":34962,"byteStride":12},{"buffer":0,"byteOffset":71444,"byteLength":2032,"target":34962,"byteStride":8},{"buffer":0,"byteOffset":73476,"byteLength":516,"target":34963},{"buffer":0,"byteOffset":73992,"byteLength":744,"target":34962,"byteStride":12},{"buffer":0,"byteOffset":74736,"byteLength":744,"target":34962,"byteStride":12},{"buffer":0,"byteOffset":75480,"byteLength":496,"target":34962,"byteStride":8},{"buffer":0,"byteOffset":75976,"byteLength":132,"target":34963},{"buffer":0,"byteOffset":76108,"byteLength":13068,"target":34962,"byteStride":12},{"buffer":0,"byteOffset":89176,"byteLength":13068,"target":34962,"byteStride":12},{"buffer":0,"byteOffset":102244,"byteLength":8712,"target":34962,"byteStride":8},{"buffer":0,"byteOffset":110956,"byteLength":3212,"target":34963},{"buffer":0,"byteOffset":114168,"byteLength":744,"target":34962,"byteStride":12},{"buffer":0,"byteOffset":114912,"byteLength":744,"target":34962,"byteStride":12},{"buffer":0,"byteOffset":115656,"byteLength":496,"target":34962,"byteStride":8},{"buffer":0,"byteOffset":116152,"byteLength":132,"target":34963},{"buffer":0,"byteOffset":116284,"byteLength":13068,"target":34962,"byteStride":12},{"buffer":0,"byteOffset":129352,"byteLength":13068,"target":34962,"byteStride":12},{"buffer":0,"byteOffset":142420,"byteLength":8712,"target":34962,"byteStride":8},{"buffer":0,"byteOffset":151132,"byteLength":3212,"target":34963},{"buffer":0,"byteOffset":154344,"byteLength":768,"target":34962,"byteStride":12},{"buffer":0,"byteOffset":155112,"byteLength":768,"target":34962,"byteStride":12},{"buffer":0,"byteOffset":155880,"byteLength":512,"target":34962,"byteStride":8},{"buffer":0,"byteOffset":156392,"byteLength":132,"target":34963},{"buffer":0,"byteOffset":156524,"byteLength":2592,"target":34962,"byteStride":12},{"buffer":0,"byteOffset":159116,"byteLength":2592,"target":34962,"byteStride":12},{"buffer":0,"byteOffset":161708,"byteLength":1728,"target":34962,"byteStride":8},{"buffer":0,"byteOffset":163436,"byteLength":468,"target":34963},{"buffer":0,"byteOffset":163904,"byteLength":720,"target":34962,"byteStride":12},{"buffer":0,"byteOffset":164624,"byteLength":720,"target":34962,"byteStride":12},{"buffer":0,"byteOffset":165344,"byteLength":480,"target":34962,"byteStride":8},{"buffer":0,"byteOffset":165824,"byteLength":120,"target":34963},{"buffer":0,"byteOffset":165944,"byteLength":2592,"target":34962,"byteStride":12},{"buffer":0,"byteOffset":168536,"byteLength":2592,"target":34962,"byteStride":12},{"buffer":0,"byteOffset":171128,"byteLength":1728,"target":34962,"byteStride":8},{"buffer":0,"byteOffset":172856,"byteLength":468,"target":34963}],"buffers":[{"byteLength":173324,"uri":"data:application/octet-stream;base64,"}],"accessors":[{"bufferView":0,"componentType":5126,"count":1680,"max":[0.8997771739959717,5.028131008148193,0.7840115427970886],"min":[-0.8997771739959717,2.8129498958587646,-0.34258565306663513],"type":"VEC3"},{"bufferView":1,"componentType":5126,"count":1680,"max":[0.9997271299362183,0.9954280257225037,0.983673632144928],"min":[-0.9997271299362183,-0.9778698682785034,-0.9842027425765991],"type":"VEC3"},{"bufferView":2,"componentType":5126,"count":1680,"max":[0.494140625,0.4886627197265625],"min":[0,0],"type":"VEC2"},{"bufferView":3,"componentType":5123,"count":2304,"max":[1679],"min":[0],"type":"SCALAR"},{"bufferView":4,"componentType":5126,"count":177,"max":[0.9114400148391724,3.41798996925354,0.611240029335022],"min":[0.33855998516082764,2.7003018856048584,-0.06578250229358673],"type":"VEC3"},{"bufferView":5,"componentType":5126,"count":177,"max":[0.9922745227813721,0.8538820743560791,0.9469464421272278],"min":[-0.9922745227813721,-0.8946571946144104,-0.9633432030677795],"type":"VEC3"},{"bufferView":6,"componentType":5126,"count":177,"max":[0.482421875,0.486328125],"min":[0,0.01953125],"type":"VEC2"},{"bufferView":7,"componentType":5123,"count":249,"max":[176],"min":[0],"type":"SCALAR"},{"bufferView":8,"componentType":5126,"count":24,"max":[0.30498000979423523,5.34027099609375,0.6756489872932434],"min":[-0.30498000979423523,5.208159923553467,0.3583190143108368],"type":"VEC3"},{"bufferView":9,"componentType":5126,"count":24,"max":[0.7834332585334778,0.49478814005851746,0.8361110091209412],"min":[-0.7834332585334778,0.11213956773281097,0.46924707293510437],"type":"VEC3"},{"bufferView":10,"componentType":5126,"count":24,"max":[0.47280803322792053,0.24648058414459229],"min":[0.44320759177207947,0.1875],"type":"VEC2"},{"bufferView":11,"componentType":5123,"count":24,"max":[23],"min":[0],"type":"SCALAR"},{"bufferView":12,"componentType":5126,"count":254,"max":[0.30498000979423523,0.8425800204277039,0.4881489872932434],"min":[-0.30498000979423523,-0.07404900342226028,-0.44304099678993225],"type":"VEC3"},{"bufferView":13,"componentType":5126,"count":254,"max":[0.9873723983764648,0.9489158987998962,0.9378668069839478],"min":[-0.9873723983764648,-0.9857341647148132,-0.864979088306427],"type":"VEC3"},{"bufferView":14,"componentType":5126,"count":254,"max":[0.4864521622657776,0.484375],"min":[0.02734375,0],"type":"VEC2"},{"bufferView":15,"componentType":5123,"count":258,"max":[253],"min":[0],"type":"SCALAR"},{"bufferView":16,"componentType":5126,"count":62,"max":[0.578540027141571,0.2408909946680069,0.3299489915370941],"min":[-0.06224999949336052,-0.8361589908599854,-0.11569099873304367],"type":"VEC3"},{"bufferView":17,"componentType":5126,"count":62,"max":[0.9004611968994141,0.5302144289016724,0.9475923180580139],"min":[-0.9513660073280334,-0.8268924355506897,-0.926692545413971],"type":"VEC3"},{"bufferView":18,"componentType":5126,"count":62,"max":[0.36019375920295715,0.46170324087142944],"min":[0,0.20097005367279053],"type":"VEC2"},{"bufferView":19,"componentType":5123,"count":66,"max":[61],"min":[0],"type":"SCALAR"},{"bufferView":20,"componentType":5126,"count":1089,"max":[1.01780104637146,-0.707958996295929,1.1800504922866821],"min":[0.3903599977493286,-2.1929101943969727,-0.05043099820613861],"type":"VEC3"},{"bufferView":21,"componentType":5126,"count":1089,"max":[0.9968332052230835,0.959563136100769,0.9779207706451416],"min":[-0.9991693496704102,-0.9880073666572571,-0.9795976877212524],"type":"VEC3"},{"bufferView":22,"componentType":5126,"count":1089,"max":[0.4806322157382965,0.48046875],"min":[0,0],"type":"VEC2"},{"bufferView":23,"componentType":5123,"count":1605,"max":[1088],"min":[0],"type":"SCALAR"},{"bufferView":24,"componentType":5126,"count":62,"max":[0.06224999949336052,0.2408909946680069,0.3299489915370941],"min":[-0.578540027141571,-0.8361589908599854,-0.11569099873304367],"type":"VEC3"},{"bufferView":25,"componentType":5126,"count":62,"max":[0.9513660073280334,0.9198464155197144,0.9475923180580139],"min":[-0.9004611968994141,-0.8251481056213379,-0.926692545413971],"type":"VEC3"},{"bufferView":26,"componentType":5126,"count":62,"max":[0.46473821997642517,0.440726637840271],"min":[0,0.08984375],"type":"VEC2"},{"bufferView":27,"componentType":5123,"count":66,"max":[61],"min":[0],"type":"SCALAR"},{"bufferView":28,"componentType":5126,"count":1089,"max":[0.10964000225067139,0.10454100370407104,1.1175504922866821],"min":[-0.51780104637146,-1.3804101943969727,-0.11293099820613861],"type":"VEC3"},{"bufferView":29,"componentType":5126,"count":1089,"max":[0.9991693496704102,0.959563136100769,0.9779207706451416],"min":[-0.9968332052230835,-0.9880073666572571,-0.9795976877212524],"type":"VEC3"},{"bufferView":30,"componentType":5126,"count":1089,"max":[0.482421875,0.482421875],"min":[0,0],"type":"VEC2"},{"bufferView":31,"componentType":5123,"count":1605,"max":[1088],"min":[0],"type":"SCALAR"},{"bufferView":32,"componentType":5126,"count":64,"max":[1.4568500518798828,3.37923002243042,0.6062700152397156],"min":[0.625,1.5732500553131104,-0.0041600000113248825],"type":"VEC3"},{"bufferView":33,"componentType":5126,"count":64,"max":[0.8337307572364807,0.6823630332946777,0.7781601548194885],"min":[-0.7757701277732849,-0.9979991316795349,-0.7688365578651428],"type":"VEC3"},{"bufferView":34,"componentType":5126,"count":64,"max":[0.45850056409835815,0.395416259765625],"min":[0.08984375,0],"type":"VEC2"},{"bufferView":35,"componentType":5123,"count":66,"max":[63],"min":[0],"type":"SCALAR"},{"bufferView":36,"componentType":5126,"count":216,"max":[1.7826114892959595,1.59142005443573,0.9413303136825562],"min":[1.1250569820404053,-0.14618617296218872,-0.1260257512331009],"type":"VEC3"},{"bufferView":37,"componentType":5126,"count":216,"max":[0.9998234510421753,0.9980829358100891,0.8273209929466248],"min":[-0.9514620304107666,-0.9275354146957397,-0.9175782203674316],"type":"VEC3"},{"bufferView":38,"componentType":5126,"count":216,"max":[0.48898088932037354,0.49609375],"min":[0.01953125,0],"type":"VEC2"},{"bufferView":39,"componentType":5123,"count":234,"max":[215],"min":[0],"type":"SCALAR"},{"bufferView":40,"componentType":5126,"count":60,"max":[0,3.37923002243042,0.6062700152397156],"min":[-0.831849992275238,1.5732500553131104,-0.0041600000113248825],"type":"VEC3"},{"bufferView":41,"componentType":5126,"count":60,"max":[0.7757701277732849,0.6823630332946777,0.7781601548194885],"min":[-0.8337307572364807,-0.41601887345314026,-0.7688365578651428],"type":"VEC3"},{"bufferView":42,"componentType":5126,"count":60,"max":[0.400390625,0.2836097478866577],"min":[0.0008122405270114541,0],"type":"VEC2"},{"bufferView":43,"componentType":5123,"count":60,"max":[59],"min":[0],"type":"SCALAR"},{"bufferView":44,"componentType":5126,"count":216,"max":[-0.5000569224357605,1.59142005443573,0.9413303136825562],"min":[-1.1576114892959595,-0.14618617296218872,-0.1260257512331009],"type":"VEC3"},{"bufferView":45,"componentType":5126,"count":216,"max":[0.9848813414573669,0.9980829358100891,0.8273209929466248],"min":[-0.9998234510421753,-0.9275354146957397,-0.9175782203674316],"type":"VEC3"},{"bufferView":46,"componentType":5126,"count":216,"max":[0.48160168528556824,0.48116832971572876],"min":[0.03515625,0.023920714855194092],"type":"VEC2"},{"bufferView":47,"componentType":5123,"count":234,"max":[215],"min":[0],"type":"SCALAR"}],"materials":[{"pbrMetallicRoughness":{"metallicFactor":0,"roughnessFactor":1,"baseColorTexture":{"index":0}},"alphaMode":"MASK","alphaCutoff":0.05,"doubleSided":true}],"textures":[{"sampler":0,"source":0,"name":"texture"}],"samplers":[{"magFilter":9728,"minFilter":9728,"wrapS":33071,"wrapT":33071}],"images":[{"mimeType":"image/png","uri":"data:image/png;base64,"}],"meshes":[{"primitives":[{"mode":4,"attributes":{"POSITION":0,"NORMAL":1,"TEXCOORD_0":2},"indices":3,"material":0}]},{"primitives":[{"mode":4,"attributes":{"POSITION":4,"NORMAL":5,"TEXCOORD_0":6},"indices":7,"material":0}]},{"primitives":[{"mode":4,"attributes":{"POSITION":8,"NORMAL":9,"TEXCOORD_0":10},"indices":11,"material":0}]},{"primitives":[{"mode":4,"attributes":{"POSITION":12,"NORMAL":13,"TEXCOORD_0":14},"indices":15,"material":0}]},{"primitives":[{"mode":4,"attributes":{"POSITION":16,"NORMAL":17,"TEXCOORD_0":18},"indices":19,"material":0}]},{"primitives":[{"mode":4,"attributes":{"POSITION":20,"NORMAL":21,"TEXCOORD_0":22},"indices":23,"material":0}]},{"primitives":[{"mode":4,"attributes":{"POSITION":24,"NORMAL":25,"TEXCOORD_0":26},"indices":27,"material":0}]},{"primitives":[{"mode":4,"attributes":{"POSITION":28,"NORMAL":29,"TEXCOORD_0":30},"indices":31,"material":0}]},{"primitives":[{"mode":4,"attributes":{"POSITION":32,"NORMAL":33,"TEXCOORD_0":34},"indices":35,"material":0}]},{"primitives":[{"mode":4,"attributes":{"POSITION":36,"NORMAL":37,"TEXCOORD_0":38},"indices":39,"material":0}]},{"primitives":[{"mode":4,"attributes":{"POSITION":40,"NORMAL":41,"TEXCOORD_0":42},"indices":43,"material":0}]},{"primitives":[{"mode":4,"attributes":{"POSITION":44,"NORMAL":45,"TEXCOORD_0":46},"indices":47,"material":0}]}]}