# Made in Blockbench 4.11.1
mtllib rails.mtl

o cuboid
v -1 0.0625 0
v -0.9999999999999999 0.0625 1.625
v -1 -0.0625 0
v -0.9999999999999999 -0.0625 1.625
v -0.5000000000000001 0.0625 0
v -0.4999999999999999 0.0625 1.625
v -0.5000000000000001 -0.0625 0
v -0.4999999999999999 -0.0625 1.625
v -1 0.125 0.625
v -1 0.125 1.25
v -0.5 0.125 0.625
v -0.49999999999999994 0.125 1.25
v -0.5 0.0625 0
v -0.5 0.0625 -1.625
v -0.5 -0.0625 0
v -0.5 -0.0625 -1.625
v -1 0.0625 0
v -1 0.0625 -1.625
v -1 -0.0625 0
v -1 -0.0625 -1.625
v -0.5 0.125 -0.625
v -0.5 0.125 -1.25
v -1 0.125 -0.625
v -1 0.125 -1.25
v 1 0.0625 0
v 1 0.0625 1.625
v 1 -0.0625 0
v 1 -0.0625 1.625
v 1.5 0.0625 1.1102230246251565e-16
v 1.5 0.0625 1.625
v 1.5 -0.0625 1.1102230246251565e-16
v 1.5 -0.0625 1.625
v 1 0.125 0.625
v 1 0.125 1.25
v 1.5 0.125 0.625
v 1.5 0.125 1.25
v 1.5 0.0625 1.1102230246251565e-16
v 1.5 0.0625 -1.625
v 1.5 -0.0625 1.1102230246251565e-16
v 1.5 -0.0625 -1.625
v 1 0.0625 0
v 1.0000000000000002 0.0625 -1.6249999999999996
v 1 -0.0625 0
v 1.0000000000000002 -0.0625 -1.6249999999999996
v 1.5 0.125 -0.6249999999999998
v 1.5 0.125 -1.25
v 0.9999999999999998 0.125 -0.625
v 1.0000000000000002 0.125 -1.2499999999999996
v -1.1102230246251565e-16 0.0625 0
v 1.1102230246251565e-16 0.0625 1.625
v -1.1102230246251565e-16 -0.0625 0
v 1.1102230246251565e-16 -0.0625 1.625
v 0.5 0.0625 1.1102230246251565e-16
v 0.5 0.0625 1.625
v 0.5 -0.0625 1.1102230246251565e-16
v 0.5 -0.0625 1.625
v 0 0.125 0.625
v 0 0.125 1.25
v 0.5 0.125 0.625
v 0.5 0.125 1.25
v 0.5 0.0625 1.1102230246251565e-16
v 0.5000000000000002 0.0625 -1.625
v 0.5 -0.0625 1.1102230246251565e-16
v 0.5000000000000002 -0.0625 -1.625
v 0 0.0625 0
v 0 0.0625 -1.625
v 0 -0.0625 0
v 0 -0.0625 -1.625
v 0.5 0.125 -0.625
v 0.5 0.125 -1.25
v 0 0.125 -0.625
v 1.1102230246251565e-16 0.125 -1.25
v 1.5 0.375 -0.8124999999999998
v 1.5 0.375 -1.0624999999999998
v 1.5 0 -0.6874999999999998
v 1.5 0 -1.1875
v -1.5 0.375 -0.8125
v -1.5 0.375 -1.0625
v -1.5 0 -0.6875
v -1.5 0 -1.1875
v 1.5 0.375 1.0625
v 1.5 0.375 0.8125
v 1.5 0 1.1875
v 1.5 0 0.6875
v -1.5 0.375 1.0625
v -1.5 0.375 0.8125
v -1.5 0 1.1875
v -1.5 0 0.6875
vt 0.5 1
vt 0 1
vt 0 0.5
vt 0.5 0.5
vt 0.5 0.5
vt 0.5 1
vt 0 1
vt 0 0.5
vt 0.125 -0.375
vt 0.375 -0.375
vt 0.375 1
vt 0.125 1
vt 0.5 0.5
vt 0.5 1
vt 0 1
vt 0 0.5
vt 0.5 0.5
vt 0.5 1
vt 0 1
vt 0 0.5
vt 0.5 1
vt 0 1
vt 0 0.5
vt 0.5 0.5
vt 0.375 0.8125
vt 0.125 0.8125
vt 0 0.125
vt 0.5 0.125
vt 0.4375 0.3125
vt 0.4375 -1.0625
vt 0.5625 -1.75
vt 0.5625 1
vt 0.125 0.3125
vt 0.375 0.3125
vt 0.5 1
vt 0 1
vt 0.125 -1.0625
vt 0.125 0.3125
vt 0 1
vt 0 -1.75
vt 0.5 1
vt 0 1
vt 0 0.5
vt 0.5 0.5
vt 0.5 0.5
vt 0.5 1
vt 0 1
vt 0 0.5
vt 0.125 -0.375
vt 0.375 -0.375
vt 0.375 1
vt 0.125 1
vt 0.5 0.5
vt 0.5 1
vt 0 1
vt 0 0.5
vt 0.5 0.5
vt 0.5 1
vt 0 1
vt 0 0.5
vt 0.5 1
vt 0 1
vt 0 0.5
vt 0.5 0.5
vt 0.375 0.8125
vt 0.125 0.8125
vt 0 0.125
vt 0.5 0.125
vt 0.4375 0.3125
vt 0.4375 -1.0625
vt 0.5625 -1.75
vt 0.5625 1
vt 0.125 0.3125
vt 0.375 0.3125
vt 0.5 1
vt 0 1
vt 0.125 -1.0625
vt 0.125 0.3125
vt 0 1
vt 0 -1.75
vt 0.5 1
vt 0 1
vt 0 0.5
vt 0.5 0.5
vt 0.5 0.5
vt 0.5 1
vt 0 1
vt 0 0.5
vt 0.125 -0.375
vt 0.375 -0.375
vt 0.375 1
vt 0.125 1
vt 0.5 0.5
vt 0.5 1
vt 0 1
vt 0 0.5
vt 0.5 0.5
vt 0.5 1
vt 0 1
vt 0 0.5
vt 0.5 1
vt 0 1
vt 0 0.5
vt 0.5 0.5
vt 0.375 0.8125
vt 0.125 0.8125
vt 0 0.125
vt 0.5 0.125
vt 0.4375 0.3125
vt 0.4375 -1.0625
vt 0.5625 -1.75
vt 0.5625 1
vt 0.125 0.3125
vt 0.375 0.3125
vt 0.5 1
vt 0 1
vt 0.125 -1.0625
vt 0.125 0.3125
vt 0 1
vt 0 -1.75
vt 0.5 1
vt 0 1
vt 0 0.5
vt 0.5 0.5
vt 0.5 0.5
vt 0.5 1
vt 0 1
vt 0 0.5
vt 0.125 -0.375
vt 0.375 -0.375
vt 0.375 1
vt 0.125 1
vt 0.5 0.5
vt 0.5 1
vt 0 1
vt 0 0.5
vt 0.5 0.5
vt 0.5 1
vt 0 1
vt 0 0.5
vt 0.5 1
vt 0 1
vt 0 0.5
vt 0.5 0.5
vt 0.375 0.8125
vt 0.125 0.8125
vt 0 0.125
vt 0.5 0.125
vt 0.4375 0.3125
vt 0.4375 -1.0625
vt 0.5625 -1.75
vt 0.5625 1
vt 0.125 0.3125
vt 0.375 0.3125
vt 0.5 1
vt 0 1
vt 0.125 -1.0625
vt 0.125 0.3125
vt 0 1
vt 0 -1.75
vt 0.5 1
vt 0 1
vt 0 0.5
vt 0.5 0.5
vt 0.5 0.5
vt 0.5 1
vt 0 1
vt 0 0.5
vt 0.125 -0.375
vt 0.375 -0.375
vt 0.375 1
vt 0.125 1
vt 0.5 0.5
vt 0.5 1
vt 0 1
vt 0 0.5
vt 0.5 0.5
vt 0.5 1
vt 0 1
vt 0 0.5
vt 0.5 1
vt 0 1
vt 0 0.5
vt 0.5 0.5
vt 0.375 0.8125
vt 0.125 0.8125
vt 0 0.125
vt 0.5 0.125
vt 0.4375 0.3125
vt 0.4375 -1.0625
vt 0.5625 -1.75
vt 0.5625 1
vt 0.125 0.3125
vt 0.375 0.3125
vt 0.5 1
vt 0 1
vt 0.125 -1.0625
vt 0.125 0.3125
vt 0 1
vt 0 -1.75
vt 0.5 1
vt 0 1
vt 0 0.5
vt 0.5 0.5
vt 0.5 0.5
vt 0.5 1
vt 0 1
vt 0 0.5
vt 0.125 -0.375
vt 0.375 -0.375
vt 0.375 1
vt 0.125 1
vt 0.5 0.5
vt 0.5 1
vt 0 1
vt 0 0.5
vt 0.5 0.5
vt 0.5 1
vt 0 1
vt 0 0.5
vt 0.5 1
vt 0 1
vt 0 0.5
vt 0.5 0.5
vt 0.375 0.8125
vt 0.125 0.8125
vt 0 0.125
vt 0.5 0.125
vt 0.4375 0.3125
vt 0.4375 -1.0625
vt 0.5625 -1.75
vt 0.5625 1
vt 0.125 0.3125
vt 0.375 0.3125
vt 0.5 1
vt 0 1
vt 0.125 -1.0625
vt 0.125 0.3125
vt 0 1
vt 0 -1.75
vt 0.5 1
vt 0 1
vt 0 0.5
vt 0.5 0.5
vt 0.5 0.5
vt 0.5 1
vt 0 1
vt 0 0.5
vt 0 0.5
vt 0.5 0.5
vt 0.5 1
vt 0 1
vt 0.5 0.5
vt 0.5 1
vt 0 1
vt 0 0.5
vt 0.5 0.5
vt 0.5 1
vt 0 1
vt 0 0.5
vt 0.5 1
vt 0 1
vt 0 0.5
vt 0.5 0.5
vt 0.5 1
vt 0 1
vt 0 0.5
vt 0.5 0.5
vt 0.5 0.5
vt 0.5 1
vt 0 1
vt 0 0.5
vt 0 0.5
vt 0.5 0.5
vt 0.5 1
vt 0 1
vt 0.5 0.5
vt 0.5 1
vt 0 1
vt 0 0.5
vt 0.5 0.5
vt 0.5 1
vt 0 1
vt 0 0.5
vt 0.5 1
vt 0 1
vt 0 0.5
vt 0.5 0.5
vn -1 0 1.2246467991473532e-16
vn 1 0 -1.2246467991473532e-16
vn 0 1 0
vn 0 -1 0
vn -1.2246467991473532e-16 0 -1
vn 1.2246467991473532e-16 0 1
vn -1.2185691100232393e-17 0.9950371902099892 -0.09950371902099892
vn -1 0 1.2246467991473532e-16
vn 2.0133069358657217e-17 0.9863939238321437 0.1643989873053573
vn 1 0 -1.2246467991473532e-16
vn 1 0 1.4178153885283953e-17
vn -1 0 2.9022003397184682e-18
vn 0 1 0
vn 0 -1 0
vn 1.2246467991473532e-16 0 1
vn -1.2246467991473532e-16 0 -1
vn 1.2185691100232393e-17 0.9950371902099892 0.09950371902099892
vn 1 8.881784197001252e-16 5.5171004025289736e-17
vn -2.0133069358657217e-17 0.9863939238321437 -0.1643989873053573
vn -1 3.552713678800501e-16 -1.0762083040283459e-17
vn -1 0 1.2246467991473532e-16
vn 1 0 -1.2246467991473532e-16
vn 0 1 0
vn 0 -1 0
vn 9.957992501029599e-17 0 -1
vn 1.2246467991473532e-16 0 1
vn 9.908572878356634e-18 0.9950371902099892 -0.09950371902099892
vn -1 0 1.2246467991473532e-16
vn 2.0133069358657217e-17 0.9863939238321437 0.1643989873053573
vn 1 0 -1.2246467991473532e-16
vn 1 0 1.5082098768530323e-16
vn -1 0 -1.5082098768530323e-16
vn 0 1 0
vn 0 -1 0
vn -9.957992501029599e-17 0 1
vn -1.2246467991473532e-16 0 -1
vn -3.200283685694566e-17 0.9950371902099892 0.09950371902099892
vn 1 7.105427357601002e-15 5.880780558453649e-16
vn -2.0133069358657217e-17 0.9863939238321437 -0.1643989873053573
vn -1 4.2632564145606025e-15 -5.880780558453651e-16
vn -1 0 1.2246467991473532e-16
vn 1 0 -1.2246467991473532e-16
vn 0 1 0
vn 0 -1 0
vn 9.957992501029599e-17 0 -1
vn 1.2246467991473532e-16 0 1
vn 9.908572878356634e-18 0.9950371902099892 -0.09950371902099892
vn -1 0 1.2246467991473532e-16
vn 2.0133069358657217e-17 0.9863939238321437 0.1643989873053573
vn 1 0 -1.2246467991473532e-16
vn 1 0 1.5082098768530318e-16
vn -1 0 -1.4178153885283953e-17
vn 0 1 0
vn 0 -1 0
vn -9.957992501029604e-17 0 1
vn -1.2246467991473532e-16 0 -1
vn -3.200283685694566e-17 0.9950371902099892 0.0995037190209989
vn 1 -3.552713678800501e-15 -1.2246467991473532e-16
vn -2.013306935865722e-17 0.9863939238321437 -0.16439898730535732
vn -1 1.0658141036401502e-15 -5.5171004025289736e-17
vn 1 5.921189464667501e-16 1.6538921594855151e-15
vn -1 -2.9605947323337506e-16 -7.657137397853899e-16
vn 0 1 0
vn 0 -1 0
vn -2.4253142306856437e-17 0.316227766016838 0.948683298050514
vn 2.4253142306856437e-17 0.316227766016838 -0.948683298050514
vn 1 0 -1.2246467991473532e-16
vn -1 -2.9605947323337506e-16 -7.657137397853899e-16
vn 0 1 0
vn 0 -1 0
vn -2.4253142306856437e-17 0.316227766016838 0.948683298050514
vn 2.4253142306856437e-17 0.316227766016838 -0.948683298050514
usemtl none
f 2/1/1 1/2/1 3/3/1 4/4/1
f 7/5/2 5/6/2 6/7/2 8/8/2
f 11/9/3 9/10/3 10/11/3 12/12/3
f 4/13/4 3/14/4 7/15/4 8/16/4
f 3/17/5 1/18/5 5/19/5 7/20/5
f 6/21/6 2/22/6 4/23/6 8/24/6
f 9/25/7 11/26/7 5/27/7 1/28/7
f 10/29/8 9/30/8 1/31/8 2/32/8
f 12/33/9 10/34/9 2/35/9 6/36/9
f 11/37/10 12/38/10 6/39/10 5/40/10
f 14/41/11 13/42/11 15/43/11 16/44/11
f 19/45/12 17/46/12 18/47/12 20/48/12
f 23/49/13 21/50/13 22/51/13 24/52/13
f 16/53/14 15/54/14 19/55/14 20/56/14
f 15/57/15 13/58/15 17/59/15 19/60/15
f 18/61/16 14/62/16 16/63/16 20/64/16
f 21/65/17 23/66/17 17/67/17 13/68/17
f 22/69/18 21/70/18 13/71/18 14/72/18
f 24/73/19 22/74/19 14/75/19 18/76/19
f 23/77/20 24/78/20 18/79/20 17/80/20
f 26/81/21 25/82/21 27/83/21 28/84/21
f 31/85/22 29/86/22 30/87/22 32/88/22
f 35/89/23 33/90/23 34/91/23 36/92/23
f 28/93/24 27/94/24 31/95/24 32/96/24
f 27/97/25 25/98/25 29/99/25 31/100/25
f 30/101/26 26/102/26 28/103/26 32/104/26
f 33/105/27 35/106/27 29/107/27 25/108/27
f 34/109/28 33/110/28 25/111/28 26/112/28
f 36/113/29 34/114/29 26/115/29 30/116/29
f 35/117/30 36/118/30 30/119/30 29/120/30
f 38/121/31 37/122/31 39/123/31 40/124/31
f 43/125/32 41/126/32 42/127/32 44/128/32
f 47/129/33 45/130/33 46/131/33 48/132/33
f 40/133/34 39/134/34 43/135/34 44/136/34
f 39/137/35 37/138/35 41/139/35 43/140/35
f 42/141/36 38/142/36 40/143/36 44/144/36
f 45/145/37 47/146/37 41/147/37 37/148/37
f 46/149/38 45/150/38 37/151/38 38/152/38
f 48/153/39 46/154/39 38/155/39 42/156/39
f 47/157/40 48/158/40 42/159/40 41/160/40
f 50/161/41 49/162/41 51/163/41 52/164/41
f 55/165/42 53/166/42 54/167/42 56/168/42
f 59/169/43 57/170/43 58/171/43 60/172/43
f 52/173/44 51/174/44 55/175/44 56/176/44
f 51/177/45 49/178/45 53/179/45 55/180/45
f 54/181/46 50/182/46 52/183/46 56/184/46
f 57/185/47 59/186/47 53/187/47 49/188/47
f 58/189/48 57/190/48 49/191/48 50/192/48
f 60/193/49 58/194/49 50/195/49 54/196/49
f 59/197/50 60/198/50 54/199/50 53/200/50
f 62/201/51 61/202/51 63/203/51 64/204/51
f 67/205/52 65/206/52 66/207/52 68/208/52
f 71/209/53 69/210/53 70/211/53 72/212/53
f 64/213/54 63/214/54 67/215/54 68/216/54
f 63/217/55 61/218/55 65/219/55 67/220/55
f 66/221/56 62/222/56 64/223/56 68/224/56
f 69/225/57 71/226/57 65/227/57 61/228/57
f 70/229/58 69/230/58 61/231/58 62/232/58
f 72/233/59 70/234/59 62/235/59 66/236/59
f 71/237/60 72/238/60 66/239/60 65/240/60
f 74/241/61 73/242/61 75/243/61 76/244/61
f 79/245/62 77/246/62 78/247/62 80/248/62
f 77/249/63 73/250/63 74/251/63 78/252/63
f 76/253/64 75/254/64 79/255/64 80/256/64
f 75/257/65 73/258/65 77/259/65 79/260/65
f 78/261/66 74/262/66 76/263/66 80/264/66
f 82/265/67 81/266/67 83/267/67 84/268/67
f 87/269/68 85/270/68 86/271/68 88/272/68
f 85/273/69 81/274/69 82/275/69 86/276/69
f 84/277/70 83/278/70 87/279/70 88/280/70
f 83/281/71 81/282/71 85/283/71 87/284/71
f 86/285/72 82/286/72 84/287/72 88/288/72